<?xml version="1.0" standalone="no"?>
<!DOCTYPE svg PUBLIC "-//W3C//DTD SVG 20010904//EN"
 "http://www.w3.org/TR/2001/REC-SVG-20010904/DTD/svg10.dtd">
<svg version="1.0" xmlns="http://www.w3.org/2000/svg"
 width="2834.000000pt" height="3278.000000pt" viewBox="0 0 2834.000000 3278.000000"
 preserveAspectRatio="xMidYMid meet">

<g transform="translate(0.000000,3278.000000) scale(0.100000,-0.100000)"
fill="#000000" stroke="none">
<path d="M12467 26883 c11 -28 108 -171 167 -247 70 -89 135 -221 191 -391 83
-251 122 -537 112 -820 -14 -408 -175 -824 -432 -1119 -60 -69 -69 -83 -69
-120 l-1 -41 113 -3 c101 -2 117 0 147 18 101 62 252 291 360 544 l51 119 65
17 c36 9 146 49 245 88 301 118 507 161 821 169 332 9 785 -26 1391 -107 441
-59 538 -68 793 -79 205 -9 550 0 723 19 424 47 798 206 1060 451 131 123 229
253 260 344 25 72 22 75 -94 75 l-101 0 -62 -63 c-34 -34 -104 -108 -155 -165
-204 -223 -494 -393 -806 -472 -201 -51 -324 -64 -606 -65 -276 0 -338 5 -780
65 -679 93 -966 115 -1505 115 -442 0 -504 -5 -748 -61 -151 -34 -224 -60
-346 -120 -59 -29 -107 -51 -109 -49 -2 1 6 47 17 101 29 146 44 341 37 479
-23 408 -80 667 -207 933 -62 133 -102 187 -203 274 -124 108 -165 128 -258
128 -70 0 -77 -2 -71 -17z"/>
<path d="M12269 26109 c-18 -7 -45 -42 -90 -116 -102 -171 -168 -252 -357
-442 -213 -214 -341 -321 -547 -458 -319 -212 -529 -268 -1005 -268 -310 0
-470 23 -820 115 -373 98 -527 120 -836 120 -218 0 -301 -14 -419 -69 -240
-113 -357 -306 -455 -746 -35 -158 -65 -342 -81 -490 -14 -129 -17 -424 -6
-477 l8 -38 85 0 c63 0 94 5 115 17 28 17 29 20 29 93 1 408 107 973 231 1228
68 141 164 241 289 300 114 54 173 66 279 58 135 -10 246 -32 537 -106 429
-109 672 -136 1144 -127 318 6 522 25 664 62 319 83 694 337 1066 723 215 222
330 389 375 545 24 85 22 87 -87 86 -51 0 -105 -5 -119 -10z"/>
<path d="M19075 25902 l-80 -27 1 -40 c0 -22 8 -80 17 -130 48 -250 22 -567
-69 -857 -19 -60 -34 -124 -34 -142 0 -33 1 -33 53 -40 28 -3 82 -6 119 -6
l68 0 18 38 c43 85 82 236 101 393 44 355 30 586 -44 754 -21 49 -49 86 -63
84 -4 0 -43 -13 -87 -27z"/>
<path d="M17765 24334 c-294 -8 -632 -37 -804 -69 -170 -33 -407 -125 -588
-229 -60 -34 -117 -65 -126 -69 -19 -7 -24 -62 -7 -72 18 -11 143 -8 191 5 48
12 127 41 204 76 425 190 653 229 1325 229 432 0 622 -15 965 -76 546 -98 973
-269 1276 -513 283 -227 442 -471 548 -841 l37 -130 120 0 119 0 -2 80 c-1 51
-11 111 -27 165 -13 47 -23 86 -22 87 5 5 153 -56 201 -82 232 -129 411 -256
685 -484 549 -460 912 -918 1103 -1396 66 -166 83 -236 113 -482 l5 -43 126 0
126 0 -6 133 c-10 229 -54 383 -192 662 -118 240 -219 392 -421 630 -279 330
-803 783 -1105 955 -261 148 -416 205 -640 235 -46 6 -46 6 -89 88 -140 267
-324 466 -591 641 -390 254 -1004 424 -1729 480 -202 15 -587 25 -795 20z"/>
<path d="M14215 24170 c-164 -9 -239 -18 -450 -56 -747 -137 -1242 -317 -1675
-612 -264 -180 -558 -497 -656 -707 l-24 -50 87 -3 c101 -3 87 -13 240 161
102 114 342 332 476 433 131 97 289 192 461 275 353 170 617 253 1143 359 335
67 445 80 681 80 230 0 349 -9 682 -51 135 -18 295 -32 355 -33 l110 -1 3 48
c2 26 1 47 -1 47 -3 0 -49 9 -103 20 -136 28 -431 67 -604 79 -214 15 -554 20
-725 11z"/>
<path d="M9470 24131 c-159 -34 -292 -110 -403 -230 -89 -97 -275 -419 -352
-611 -65 -163 -125 -407 -125 -515 l0 -30 119 3 119 3 12 72 c29 177 95 373
178 531 70 133 216 367 268 430 119 147 347 257 501 243 34 -4 136 -21 225
-38 115 -23 194 -32 268 -33 l105 -1 3 31 c5 56 -52 83 -283 135 -142 32 -507
38 -635 10z"/>
<path d="M20652 24057 c-58 -13 -122 -58 -122 -85 0 -16 16 -18 188 -17 241 0
296 -13 682 -162 411 -158 710 -302 1040 -501 392 -237 514 -345 625 -555 44
-83 101 -235 91 -244 -9 -9 -94 45 -227 143 -172 128 -287 198 -367 226 -56
19 -88 23 -192 23 l-125 0 -3 -41 c-4 -49 0 -52 98 -93 85 -35 206 -111 356
-222 139 -104 244 -168 320 -196 56 -20 84 -23 194 -23 71 0 140 4 153 9 39
15 57 68 57 164 0 222 -163 512 -380 675 -238 180 -759 469 -1105 614 -298
124 -669 244 -845 273 -129 21 -370 28 -438 12z"/>
<path d="M11235 24036 c-165 -43 -389 -142 -574 -254 -267 -160 -482 -405
-635 -722 -154 -320 -207 -602 -208 -1100 -1 -245 30 -412 97 -527 l26 -43 99
0 c118 0 113 -11 75 154 -48 214 -53 372 -24 756 37 488 281 973 632 1256 174
139 389 252 735 385 l63 24 -3 45 -3 45 -95 2 c-73 2 -116 -3 -185 -21z"/>
<path d="M16390 23760 c-306 -20 -674 -67 -945 -121 -473 -93 -1038 -284
-1316 -445 -78 -45 -195 -137 -210 -166 -11 -20 -10 -20 47 -16 43 4 139 36
359 120 783 300 1295 428 1984 492 364 35 620 31 1143 -14 123 -11 251 -20
285 -20 58 0 63 2 69 24 16 63 -7 76 -188 101 -312 43 -910 65 -1228 45z"/>
<path d="M18581 23560 c-48 -11 -86 -43 -86 -71 l0 -24 165 -6 c136 -5 180
-11 251 -32 216 -65 340 -132 570 -308 370 -283 614 -545 867 -929 189 -289
206 -313 232 -331 18 -13 54 -20 129 -25 l104 -7 -7 44 c-14 87 -143 326 -280
519 -233 329 -475 575 -824 839 -245 185 -473 288 -727 326 -105 16 -336 19
-394 5z"/>
<path d="M16303 22894 c-29 -7 -65 -52 -61 -78 3 -18 13 -22 77 -28 117 -12
191 -53 411 -227 183 -145 306 -256 491 -440 692 -692 983 -1196 1140 -1976
27 -134 46 -204 57 -212 19 -15 199 -18 221 -4 13 8 13 27 -2 143 -69 560
-268 1054 -611 1511 -415 554 -1105 1175 -1432 1287 -58 20 -240 35 -291 24z"/>
<path d="M17677 22793 c-4 -3 -7 -23 -7 -44 0 -27 5 -39 18 -43 9 -3 37 -10
62 -16 64 -17 112 -43 225 -123 204 -145 436 -348 715 -627 306 -305 445 -508
631 -920 80 -179 70 -170 200 -170 129 0 131 2 106 97 -24 90 -59 177 -142
343 -140 283 -272 466 -508 703 -471 474 -876 767 -1100 797 -89 11 -190 13
-200 3z"/>
<path d="M5811 22639 c-546 -35 -950 -185 -1204 -448 -269 -279 -385 -620
-462 -1361 -63 -600 -181 -981 -410 -1325 -207 -310 -384 -478 -637 -605 -108
-54 -126 -60 -182 -60 -54 0 -69 -5 -120 -36 -54 -34 -58 -39 -52 -66 27 -138
262 -415 464 -548 335 -222 693 -330 1093 -330 241 0 392 33 572 124 224 114
507 349 571 474 10 18 16 48 14 65 l-3 32 -90 3 c-49 2 -100 0 -112 -3 -12 -3
-68 -48 -125 -101 -268 -251 -493 -391 -724 -449 l-98 -25 -115 20 c-239 43
-390 93 -586 194 -223 115 -322 194 -521 415 -108 120 -116 141 -53 141 129 0
387 101 533 209 253 187 509 542 650 899 75 191 153 530 181 790 8 78 22 206
30 285 64 583 191 922 440 1172 133 134 295 233 500 304 109 39 333 84 520
106 77 9 165 20 195 23 l55 7 3 43 c3 38 0 43 -23 52 -29 11 -120 11 -304 -1z"/>
<path d="M18834 22586 c-7 -19 40 -88 124 -178 346 -375 894 -1116 1137 -1538
294 -510 516 -1176 609 -1831 26 -180 52 -457 43 -465 -2 -3 -67 1 -143 7
-134 11 -561 6 -611 -7 -20 -6 -21 -1 -30 83 -4 48 -8 214 -8 368 1 315 7 369
81 749 25 126 42 236 40 243 -4 11 -31 13 -118 11 l-113 -3 -17 -35 c-39 -80
-88 -313 -130 -620 -15 -114 -16 -617 -1 -735 6 -44 9 -81 8 -83 -1 -1 -74
-14 -161 -27 -181 -28 -392 -79 -548 -131 -93 -31 -109 -34 -119 -21 -188 234
-313 414 -386 556 -165 322 -273 681 -320 1061 l-16 135 -118 3 -117 3 0 -68
c0 -161 59 -499 126 -721 71 -235 196 -517 300 -677 46 -71 216 -301 268 -364
l36 -43 -117 -67 c-133 -75 -280 -167 -396 -247 -43 -30 -83 -51 -89 -48 -10
6 -145 279 -216 437 l-31 67 -99 0 c-79 0 -101 -3 -106 -15 -15 -41 75 -299
181 -513 l76 -152 -24 -28 c-13 -15 -51 -56 -84 -92 -34 -36 -72 -80 -87 -99
l-26 -34 -15 24 c-21 34 -116 278 -170 439 -118 350 -234 786 -292 1094 -27
143 -28 149 -10 162 16 12 16 18 6 60 -7 26 -22 65 -33 88 -12 23 -24 70 -27
106 -5 58 -8 65 -29 68 -33 5 -56 48 -101 187 -46 139 -71 252 -103 460 -20
131 -23 180 -20 392 l2 242 -27 14 c-16 8 -42 18 -60 21 -30 7 -34 13 -64 104
-46 143 -119 314 -220 519 -185 376 -404 651 -683 860 -211 158 -343 213 -511
213 -106 0 -115 -4 -115 -55 l0 -42 66 -11 c84 -14 164 -61 327 -191 261 -210
465 -467 636 -801 80 -157 201 -441 245 -578 32 -100 82 -325 101 -454 4 -26
15 -56 24 -67 12 -14 25 -77 44 -215 43 -305 114 -563 202 -736 37 -72 46
-102 60 -200 47 -328 131 -685 281 -1192 5 -16 -3 -18 -70 -18 -88 0 -78 21
-101 -210 -54 -538 -145 -909 -322 -1305 -49 -109 -148 -291 -164 -300 -14 -9
-178 168 -320 345 -154 193 -408 606 -584 950 l-59 115 3 385 c3 529 -4 638
-99 1484 -22 197 -40 369 -40 382 0 22 4 23 78 26 l77 3 3 38 c4 46 -15 134
-63 292 -139 459 -381 853 -748 1217 -184 183 -274 228 -454 228 l-93 0 0 -40
c0 -38 2 -40 73 -81 149 -88 463 -430 639 -699 83 -126 224 -407 274 -545 35
-98 84 -268 84 -292 0 -20 -96 -17 -104 2 -14 38 -26 10 -26 -62 0 -89 38
-525 75 -848 13 -121 29 -275 35 -342 13 -153 25 -510 17 -503 -10 9 -100 260
-165 460 -65 200 -96 329 -115 485 l-12 100 -92 3 -91 3 -18 -31 c-10 -16 -23
-30 -28 -30 -13 0 1 -173 25 -296 21 -108 53 -226 120 -431 21 -67 39 -126 39
-131 0 -4 -16 -16 -35 -25 -43 -21 -60 -53 -74 -144 -46 -296 64 -939 255
-1501 l45 -133 -32 -142 c-30 -137 -77 -317 -120 -460 -20 -68 -21 -69 -41
-50 -75 67 -354 484 -543 813 -94 163 -333 634 -434 855 -222 486 -391 1001
-491 1495 -40 198 -80 451 -80 504 l0 29 -116 -5 c-83 -4 -119 -9 -126 -19
-27 -41 46 -526 133 -874 134 -537 275 -919 543 -1470 326 -669 666 -1216 956
-1537 39 -42 70 -83 70 -91 0 -69 -294 -637 -330 -637 -5 0 -39 6 -77 14 -195
41 -564 46 -788 11 -123 -19 -297 -60 -389 -91 -38 -13 -75 -24 -82 -24 -15 0
-108 278 -154 458 -58 231 -64 291 -64 607 -1 317 13 472 62 717 l27 133 50
13 c154 39 285 54 512 59 203 5 233 8 237 22 5 18 0 70 -8 78 -30 30 -580 28
-730 -3 l-29 -6 7 46 c4 25 27 128 52 229 70 286 71 287 49 303 -10 8 -36 14
-57 14 -29 0 -45 -7 -72 -35 -22 -22 -45 -35 -61 -35 -21 0 -29 -8 -45 -46
-33 -76 -89 -262 -119 -397 -16 -70 -31 -130 -33 -132 -2 -3 -90 -29 -194 -59
-186 -54 -415 -129 -608 -200 -55 -20 -103 -33 -107 -29 -10 10 -72 294 -99
448 -11 66 -29 208 -39 315 -11 107 -22 203 -26 213 -10 24 -145 26 -145 2 0
-8 -4 -15 -10 -15 -5 0 -10 -7 -10 -15 0 -10 -10 -15 -29 -15 -39 0 -41 -13
-31 -178 15 -235 39 -396 100 -681 22 -101 39 -185 38 -186 -2 -1 -68 -30
-148 -65 -409 -179 -801 -402 -1114 -634 -49 -36 -92 -66 -97 -66 -17 0 -198
323 -289 515 -125 265 -211 489 -254 665 l-31 125 -113 2 c-88 1 -114 -2 -119
-12 -10 -28 30 -233 69 -355 94 -292 281 -701 442 -968 47 -78 86 -145 86
-150 0 -4 -39 -43 -86 -86 -104 -96 -285 -293 -359 -391 -61 -81 -125 -184
-125 -201 0 -16 83 -22 140 -12 40 7 59 22 165 126 159 156 395 376 398 371 2
-2 50 -67 107 -144 569 -771 1221 -1318 2073 -1740 l227 -112 -151 -83 c-198
-107 -465 -264 -608 -357 -62 -40 -118 -75 -123 -76 -6 -1 -17 23 -25 53 -40
159 -159 576 -189 661 -51 146 -92 227 -132 257 -33 25 -43 27 -131 27 -92 0
-96 -1 -99 -23 -2 -12 13 -61 33 -107 20 -47 47 -117 61 -157 34 -100 197
-711 220 -825 l18 -91 -78 -73 c-201 -187 -422 -512 -414 -608 l3 -36 106 -3
106 -3 48 73 c68 104 208 288 243 321 27 26 31 27 35 10 35 -122 44 -748 13
-943 -55 -354 -140 -622 -297 -930 -82 -162 -207 -343 -253 -367 -14 -8 -26
-22 -26 -32 0 -23 -113 -131 -184 -176 -107 -68 -232 -117 -408 -161 -49 -12
-68 -21 -69 -33 0 -9 -2 -24 -4 -35 -9 -47 -2 -49 159 -43 178 6 302 34 435
98 46 21 86 37 88 35 3 -2 20 -75 39 -162 51 -236 101 -374 205 -557 104 -183
187 -293 376 -500 229 -249 442 -376 731 -434 64 -13 136 -18 277 -18 189 0
190 0 253 29 82 38 112 73 112 132 l0 44 -118 0 c-117 0 -120 -1 -161 -30 -64
-47 -87 -53 -157 -41 -148 26 -337 112 -474 215 -89 67 -266 249 -385 396
-136 168 -266 391 -334 571 -41 109 -108 395 -118 505 -6 63 -6 63 37 111 170
193 354 568 456 927 80 283 108 501 109 851 0 286 -9 417 -46 665 l-21 135 47
43 c120 108 328 245 682 448 152 87 276 154 286 154 3 0 -4 -17 -15 -39 -29
-60 -41 -162 -35 -301 12 -256 94 -468 280 -720 89 -121 336 -366 452 -448
195 -138 458 -242 666 -263 226 -22 456 9 612 85 342 166 705 589 794 925 23
86 26 116 27 281 0 226 -15 294 -104 475 -69 141 -134 219 -236 286 l-68 44
-126 -2 c-69 -1 -161 -5 -206 -8 -95 -8 -75 14 -197 -225 -49 -96 -86 -164
-82 -150 3 14 26 103 50 198 45 173 56 267 33 290 -8 8 -51 12 -128 12 -108 0
-118 -2 -137 -22 -30 -34 -197 -307 -333 -546 -90 -157 -89 -136 2 112 99 268
129 379 127 466 l-2 75 34 7 c67 14 275 48 369 60 53 6 228 12 395 12 l300 1
3 47 3 46 -53 12 c-29 7 -147 15 -263 17 -530 13 -1020 -63 -1542 -241 l-103
-35 -83 112 c-131 176 -159 215 -249 348 -106 157 -148 226 -148 243 0 23 134
141 211 188 61 36 85 44 139 48 l65 5 0 35 c0 32 4 37 55 62 83 41 286 105
423 134 164 34 353 42 507 20 63 -9 136 -16 162 -16 26 0 48 -4 48 -9 0 -13
-100 -136 -209 -256 -88 -97 -109 -135 -96 -174 5 -16 20 -19 114 -26 64 -4
117 -3 128 3 10 5 61 12 114 15 77 4 122 14 225 48 201 67 550 249 838 437 47
30 73 42 82 36 383 -267 583 -370 1094 -564 143 -54 176 -63 251 -68 118 -7
159 2 159 33 0 47 -19 74 -68 99 -28 14 -90 60 -139 103 -49 43 -150 130 -224
193 -74 63 -190 171 -259 240 -129 128 -308 325 -317 348 -3 8 50 68 128 145
74 73 172 176 218 230 l83 97 47 -35 c384 -292 752 -487 1191 -632 167 -55
499 -137 641 -159 l106 -16 -5 -43 -4 -44 103 -3 c109 -3 132 3 179 47 23 22
36 24 187 30 114 5 166 11 173 21 6 7 10 30 8 51 l-3 38 -84 5 -83 5 103 61
c217 129 451 229 784 337 223 72 542 143 561 124 3 -3 -3 -22 -15 -41 -12 -19
-54 -98 -94 -175 l-73 -140 1 77 0 77 -128 3 -128 3 -174 -355 -174 -354 -66
-4 c-37 -2 -66 1 -68 7 -7 19 22 180 47 267 14 48 44 127 66 177 59 130 59
129 -51 133 -49 2 -102 0 -116 -4 -58 -16 -110 -96 -156 -244 -74 -235 -76
-468 -6 -684 83 -253 182 -365 495 -556 273 -168 448 -214 809 -215 168 0 213
4 278 20 148 38 300 124 499 282 313 250 456 557 419 901 -6 61 -10 112 -8
114 2 3 46 -2 98 -10 52 -9 123 -18 159 -21 l65 -6 4 -157 c2 -121 8 -177 26
-247 37 -146 104 -352 119 -364 10 -8 47 -9 125 -5 l111 7 0 41 c0 23 -11 81
-25 131 -14 49 -25 103 -25 120 0 16 -11 69 -24 117 -21 76 -37 158 -61 314
l-6 41 117 12 c141 14 376 62 499 103 281 91 579 300 930 652 235 235 375 430
375 522 l0 34 -115 0 -114 0 -35 -42 c-19 -24 -69 -88 -112 -143 -194 -251
-515 -549 -777 -722 -107 -70 -240 -140 -339 -177 -77 -29 -344 -91 -455 -106
-128 -17 -295 9 -518 80 -83 27 -105 39 -135 71 -19 22 -43 39 -51 39 -9 0
-24 9 -34 20 -15 16 -31 20 -88 20 -63 0 -79 5 -182 54 l-113 54 24 76 c26 82
32 174 12 194 -8 8 -48 12 -108 13 l-95 1 55 13 c76 19 139 18 248 -4 115 -24
190 -59 325 -150 l105 -71 116 0 116 0 0 43 c0 50 -9 63 -70 109 -190 141
-266 170 -555 208 -140 19 -202 21 -495 19 l-335 -2 -130 46 c-71 25 -171 63
-221 85 -231 100 -581 300 -547 313 10 3 72 12 137 19 65 6 125 14 133 17 10
4 13 19 11 52 l-3 46 -170 0 c-93 0 -200 -3 -237 -7 l-67 -7 -98 77 c-357 280
-717 645 -960 972 -79 107 -243 355 -243 368 0 10 147 120 245 184 147 94 363
219 381 219 11 0 37 -4 59 -10 50 -13 155 -14 175 -1 13 8 13 15 -3 61 -10 28
-15 55 -10 59 40 37 499 168 653 186 l55 6 24 -133 c140 -793 582 -1760 1035
-2264 90 -100 127 -117 247 -113 87 3 94 4 97 24 2 15 -20 52 -65 110 -233
305 -315 427 -448 669 -312 565 -517 1132 -619 1712 -6 35 -16 32 130 48 147
16 420 3 577 -27 l57 -11 0 -142 c0 -338 -35 -691 -96 -971 -20 -93 -33 -176
-30 -190 6 -24 8 -24 120 -24 80 0 117 4 124 13 17 20 61 181 82 302 32 178
49 363 61 650 7 149 13 271 14 272 3 5 267 -105 275 -114 4 -4 26 -64 50 -133
163 -478 445 -1023 695 -1341 80 -102 225 -251 320 -329 84 -69 271 -193 375
-249 150 -80 317 -107 620 -98 205 6 344 25 540 73 148 37 160 44 160 99 l0
44 -46 7 c-69 10 -180 -2 -323 -35 -456 -107 -570 -90 -908 135 -359 240 -593
531 -895 1114 -368 712 -586 1617 -576 2398 2 207 1 244 -12 252 -8 5 -59 10
-113 10 -117 0 -110 10 -128 -171 -20 -205 0 -558 52 -924 22 -155 78 -443
108 -547 10 -38 16 -68 13 -68 -3 0 -53 16 -112 36 l-107 36 -12 171 c-47 673
-223 1365 -495 1947 -176 377 -439 778 -840 1280 -303 380 -467 541 -642 628
-89 45 -190 64 -200 38z m-3669 -4872 l85 -200 -15 -155 c-8 -84 -18 -172 -22
-194 l-6 -40 -13 50 c-60 225 -136 654 -133 753 0 24 1 25 9 7 5 -11 48 -110
95 -221z m2240 -419 c101 -231 280 -574 420 -805 192 -317 502 -722 740 -968
149 -153 149 -153 277 -150 l103 3 -3 33 c-3 48 -19 74 -122 197 l-91 109 38
34 c76 67 252 176 407 253 88 43 166 79 174 79 8 0 53 -25 100 -56 182 -120
474 -270 650 -334 72 -26 69 -31 -28 -49 -312 -59 -820 -238 -1085 -383 -106
-58 -233 -138 -321 -203 -17 -12 -124 6 -342 60 -551 137 -1004 350 -1437 675
-110 83 -187 147 -193 161 -2 4 23 52 56 106 239 396 399 884 466 1418 9 72
19 150 22 175 l6 45 57 -145 c32 -80 79 -194 106 -255z m642 118 c262 -399
669 -837 1080 -1159 l52 -41 -77 -33 c-165 -71 -332 -167 -439 -252 -35 -27
-67 -48 -72 -46 -4 1 -40 41 -78 88 -202 247 -385 518 -566 840 -97 172 -247
480 -247 507 0 15 10 27 33 38 17 9 75 51 127 95 52 44 98 80 103 80 4 0 42
-53 84 -117z m-2442 -551 c203 -341 346 -530 589 -779 82 -85 146 -158 143
-165 -9 -24 -172 -213 -273 -317 -69 -72 -105 -102 -113 -96 -17 10 -183 264
-249 381 -74 130 -202 398 -260 544 l-49 125 33 195 c18 107 36 226 40 263 4
37 8 66 9 65 1 -2 60 -99 130 -216z m-2859 -214 c-15 -70 -46 -310 -57 -436
-18 -205 -7 -616 20 -767 32 -179 124 -507 181 -645 l29 -70 -77 -52 c-42 -28
-96 -67 -118 -85 l-42 -34 -30 53 c-216 384 -454 925 -602 1368 -40 119 -120
389 -120 405 0 12 22 22 235 103 168 63 546 191 569 191 16 1 17 -4 12 -31z
m-1016 -533 c141 -470 310 -894 535 -1340 207 -410 446 -792 717 -1145 32 -41
54 -77 50 -80 -4 -3 -50 -25 -103 -49 l-96 -42 -90 40 c-235 103 -572 292
-803 450 -147 100 -150 102 -235 165 -356 263 -731 632 -1035 1020 -125 159
-280 377 -275 386 10 17 247 189 392 287 160 107 397 245 573 333 109 55 314
149 317 146 1 -1 25 -78 53 -171z m3790 -444 c40 -65 111 -172 157 -237 46
-64 80 -120 76 -124 -4 -4 -36 -31 -71 -60 -59 -49 -64 -51 -85 -37 -31 22
-213 182 -344 303 l-112 104 40 118 c22 64 53 164 70 222 16 58 32 112 35 120
3 8 38 -50 84 -137 43 -84 110 -206 150 -272z m5433 -187 c-30 -44 -50 -63
-60 -60 -8 3 -46 6 -85 6 l-70 0 6 38 c14 74 9 71 109 75 51 1 104 4 119 5
l27 2 -46 -66z m-5789 -212 c85 -76 223 -193 254 -217 4 -4 -263 -177 -401
-259 -146 -88 -297 -169 -409 -220 l-78 -35 82 102 c129 162 253 358 346 549
48 97 89 177 91 178 2 0 53 -44 115 -98z m5648 -7 c-2 -5 -32 -59 -66 -120
-35 -60 -96 -172 -135 -247 -40 -76 -74 -138 -76 -138 -7 0 159 559 176 591 7
14 16 9 56 -30 26 -25 47 -50 45 -56z m-4892 -145 c0 -5 82 -93 181 -195 100
-102 178 -185 175 -185 -10 0 -232 140 -321 202 -132 93 -144 103 -145 110 0
9 90 78 101 78 5 0 9 -4 9 -10z m5273 -51 c12 -7 24 -13 26 -15 2 -2 -17 -34
-42 -71 -25 -37 -68 -106 -96 -153 -28 -47 -51 -82 -51 -79 0 4 18 55 41 115
23 60 50 133 61 162 21 55 26 59 61 41z m6 -651 c-108 -312 -141 -432 -137
-502 l3 -59 -80 -54 c-44 -30 -101 -66 -128 -79 l-47 -25 44 83 c25 46 85 171
134 278 96 208 269 560 277 560 2 0 -27 -91 -66 -202z m341 88 c-14 -70 -71
-217 -101 -261 -26 -39 -25 -33 46 181 58 174 80 206 55 80z m-1004 -457 c-38
-165 -61 -313 -54 -358 6 -40 -4 -40 -129 1 -87 29 -94 33 -63 36 19 2 44 12
56 23 12 11 65 116 119 234 54 119 100 214 102 212 1 -2 -12 -69 -31 -148z
m-456 -85 c-10 -71 -19 -131 -20 -132 0 -8 -65 37 -65 45 0 10 99 223 102 219
1 -1 -6 -60 -17 -132z m-6266 -336 c-5 -7 -27 -38 -50 -68 -22 -30 -67 -95
-100 -145 -32 -49 -60 -92 -62 -94 -3 -6 -182 171 -182 180 0 4 8 9 18 12 9 3
96 33 192 66 96 33 179 61 183 61 5 0 5 -6 1 -12z m-680 -263 c-7 -16 -44 -21
-44 -6 0 8 16 16 42 20 4 0 5 -6 2 -14z m1929 -59 c74 -73 155 -214 191 -333
7 -23 7 -23 -104 -23 -61 0 -120 -4 -130 -10 -10 -5 -59 -71 -109 -146 -50
-75 -91 -133 -91 -130 0 3 16 66 34 138 19 73 56 223 81 333 55 235 52 225 64
225 5 0 34 -25 64 -54z m-2196 -72 c-3 -3 -12 -4 -19 -1 -8 3 -5 6 6 6 11 1
17 -2 13 -5z m247 -114 c21 -8 24 -14 21 -42 -3 -18 -18 -127 -35 -243 -16
-115 -31 -223 -33 -240 l-3 -30 -17 38 c-61 133 -82 388 -40 480 19 41 26 47
52 47 16 0 41 -4 55 -10z m326 -62 c0 -7 -12 -31 -26 -53 l-25 -40 5 40 c3 22
6 46 6 53 0 6 9 12 20 12 11 0 20 -6 20 -12z m67 -514 c-35 -98 -80 -236 -102
-306 -22 -71 -42 -128 -46 -128 -11 0 -126 145 -171 215 l-39 60 98 5 c54 3
103 8 110 13 16 10 112 157 163 250 23 43 44 76 46 74 2 -2 -25 -84 -59 -183z
m602 71 c-52 -192 -177 -697 -195 -784 -9 -46 -14 -101 -11 -122 l5 -38 -51
26 c-63 31 -179 108 -201 132 -15 16 -15 20 2 42 47 61 134 216 362 647 62
117 114 212 116 210 1 -2 -10 -53 -27 -113z m1167 -69 c-10 -54 -37 -138 -42
-133 -5 5 38 167 45 167 2 0 0 -15 -3 -34z m-397 -332 c-24 -65 -79 -298 -79
-339 0 -48 -6 -56 -96 -126 -148 -114 -328 -193 -439 -192 -61 0 -192 39 -299
88 l-51 23 121 1 c102 1 123 4 137 19 19 20 94 171 167 332 28 63 52 116 53
117 2 1 1 -29 -1 -68 -6 -99 -7 -99 156 -99 l136 0 45 48 c25 26 70 89 100
140 54 91 72 111 50 56z"/>
<path d="M21796 21831 c-8 -12 39 -74 105 -141 128 -130 379 -361 404 -370 32
-12 175 -13 194 -1 21 14 6 70 -31 115 -80 98 -342 297 -493 375 -46 24 -72
31 -117 31 -31 0 -59 -4 -62 -9z"/>
<path d="M5433 21449 c-61 -30 -141 -122 -216 -246 -81 -135 -100 -174 -141
-281 -70 -182 -122 -409 -151 -652 -25 -208 -31 -651 -11 -829 29 -262 19
-352 -54 -489 -94 -174 -261 -339 -516 -510 -107 -71 -134 -101 -134 -149 l0
-35 108 4 c99 3 113 6 182 40 205 101 429 289 554 466 134 191 166 352 130
652 -14 115 -19 215 -18 385 3 418 48 720 154 1017 93 259 264 510 368 537 40
11 42 14 42 49 0 21 -5 43 -12 50 -8 8 -51 12 -127 12 -98 0 -123 -3 -158 -21z"/>
<path d="M22127 20594 c-14 -14 23 -57 217 -254 213 -216 272 -282 377 -420
275 -360 292 -383 283 -395 -66 -88 -99 -167 -120 -286 -30 -170 -9 -343 80
-657 66 -234 147 -436 188 -469 7 -6 54 -11 105 -11 74 -1 92 2 97 14 3 9 -21
107 -53 217 -156 526 -190 750 -141 909 29 93 29 94 138 90 l93 -3 56 -57 c30
-31 74 -84 96 -117 63 -94 75 -105 120 -105 33 0 38 -3 32 -17 -24 -60 -47
-137 -62 -207 -25 -114 -24 -410 1 -561 30 -187 121 -520 173 -637 l26 -58
108 0 109 0 0 28 c0 15 -25 128 -55 252 -97 391 -106 445 -112 645 -6 200 6
294 50 405 77 189 228 346 363 374 68 15 214 -66 333 -183 83 -82 200 -257
280 -418 120 -240 169 -411 180 -631 5 -91 12 -147 20 -155 19 -19 250 -13
347 9 57 14 115 18 209 18 163 -2 284 -31 433 -105 208 -103 388 -323 454
-556 17 -60 22 -105 22 -193 0 -130 -12 -194 -58 -295 -42 -91 -86 -130 -163
-144 -107 -21 -108 -21 -108 -71 l0 -45 135 -3 c221 -5 295 18 355 112 78 123
110 274 102 488 -7 210 -51 343 -168 514 -65 94 -198 221 -285 272 -198 117
-408 157 -794 150 l-227 -4 -7 86 c-8 104 -47 284 -88 399 -43 126 -156 350
-238 476 -116 176 -269 315 -411 372 -76 31 -234 46 -379 38 -190 -12 -272
-41 -366 -131 -31 -30 -60 -51 -63 -47 -4 4 -26 33 -49 64 -90 120 -255 255
-341 279 -20 5 -59 10 -88 10 l-51 0 -48 68 c-317 446 -638 772 -864 879 -104
49 -227 83 -243 67z"/>
<path d="M7315 20513 c-150 -21 -282 -107 -373 -243 -62 -92 -72 -112 -110
-222 -44 -123 -70 -271 -83 -465 -20 -299 5 -479 142 -1023 172 -680 213 -951
214 -1400 l0 -275 -31 -86 c-19 -54 -57 -126 -98 -188 -64 -97 -86 -153 -69
-176 5 -7 48 -9 122 -5 l114 5 57 62 c67 73 121 176 152 288 21 74 22 101 22
365 -1 475 -46 779 -214 1450 -44 174 -93 383 -110 465 -87 422 -26 893 151
1152 52 76 178 192 222 204 37 10 38 11 35 52 l-3 42 -55 1 c-30 1 -68 0 -85
-3z"/>
<path d="M11830 20405 c0 -8 29 -101 65 -206 138 -407 160 -546 159 -1029 0
-478 -22 -701 -120 -1209 -25 -128 -44 -249 -42 -269 l3 -35 80 2 c134 4 147
9 168 66 45 121 107 451 141 750 41 351 46 925 11 1175 -30 215 -92 417 -177
581 -54 105 -67 114 -140 103 -30 -5 -38 -1 -75 40 -42 46 -73 59 -73 31z"/>
<path d="M10381 19514 c-125 -33 -222 -111 -295 -237 -70 -119 -115 -447 -95
-699 11 -156 69 -442 120 -593 60 -179 173 -381 230 -410 41 -22 207 -21 216
1 9 25 -14 87 -98 267 -85 178 -127 308 -175 537 -27 125 -29 151 -29 350 1
225 12 321 54 443 22 62 124 235 177 299 19 22 31 44 28 49 -8 13 -71 10 -133
-7z"/>
<path d="M22280 19309 c0 -39 114 -557 186 -844 121 -483 245 -909 279 -962
15 -22 21 -23 132 -23 l116 0 -7 51 c-4 27 -22 103 -41 167 -73 246 -229 817
-290 1057 -97 384 -131 494 -175 563 -14 20 -22 22 -107 22 l-93 0 0 -31z"/>
<path d="M7620 18640 c0 -6 40 -10 99 -10 56 0 103 4 106 10 4 6 -32 10 -99
10 -64 0 -106 -4 -106 -10z"/>
<path d="M7605 18608 c-11 -31 -35 -256 -35 -326 0 -194 74 -415 201 -605 56
-83 164 -188 222 -216 41 -20 55 -22 127 -15 51 4 84 11 87 19 7 19 -28 80
-96 170 -244 319 -306 490 -282 776 6 72 11 149 11 170 l0 39 -115 0 c-84 0
-117 -3 -120 -12z"/>
<path d="M3478 17519 c-118 -28 -288 -143 -395 -268 -141 -164 -320 -463 -466
-775 -207 -446 -277 -691 -277 -976 0 -130 10 -208 45 -362 57 -254 149 -408
426 -715 l119 -132 -17 -108 c-23 -154 -23 -500 0 -650 20 -131 72 -325 117
-438 89 -225 251 -470 376 -566 l57 -44 116 0 116 0 3 38 c3 35 -2 44 -67 113
-261 279 -418 630 -462 1035 -20 181 2 521 37 576 8 12 14 40 14 62 0 77 56
203 160 359 110 165 193 253 258 273 40 11 42 14 42 49 0 56 -15 64 -123 58
-128 -8 -195 -34 -276 -112 -57 -56 -196 -242 -246 -331 l-20 -36 -80 96
c-164 196 -236 330 -285 525 -86 349 -45 606 175 1105 77 174 204 428 272 545
127 216 214 338 340 477 114 125 163 185 163 200 0 15 -64 16 -122 2z"/>
<path d="M23620 17479 c-56 -16 -80 -50 -80 -116 0 -85 28 -133 149 -253 105
-105 239 -208 501 -386 466 -316 930 -530 1475 -681 94 -26 112 -28 298 -28
197 0 199 0 218 24 13 16 19 39 19 76 0 47 -5 59 -38 102 -107 135 -373 325
-877 627 -251 151 -496 280 -778 411 -133 61 -287 135 -342 162 -65 33 -123
55 -166 62 -79 13 -330 13 -379 0z m325 -164 c40 -25 177 -95 304 -154 317
-150 546 -270 779 -409 408 -245 662 -417 779 -528 81 -77 85 -77 -154 2 -538
177 -970 406 -1493 792 -63 47 -144 110 -179 141 -63 55 -171 177 -171 193 0
23 68 4 135 -37z"/>
<path d="M4321 16978 c-122 -186 -180 -344 -230 -625 -41 -231 -55 -397 -55
-678 -1 -268 -1 -271 27 -360 32 -103 73 -172 115 -198 24 -13 53 -17 141 -17
l111 0 0 43 c0 32 -7 51 -29 78 -41 49 -67 103 -88 179 -27 97 -24 489 5 732
37 310 83 500 178 741 30 76 52 143 48 148 -3 5 -47 9 -97 9 l-92 0 -34 -52z"/>
<path d="M6675 16637 c-22 -13 -80 -50 -130 -82 -112 -73 -322 -174 -435 -210
-140 -44 -245 -27 -486 81 l-122 54 -130 0 c-155 0 -156 0 -150 -97 3 -57 10
-78 40 -128 90 -148 300 -352 502 -486 246 -165 458 -247 740 -286 151 -20
574 -23 721 -4 292 37 565 130 755 256 83 55 100 77 100 127 l0 38 -116 0
-116 0 -82 -49 c-251 -151 -503 -234 -783 -259 -395 -35 -816 121 -1188 440
-119 103 -223 215 -188 204 118 -37 396 -56 550 -37 197 24 501 163 637 290
49 46 96 118 96 148 0 22 -3 23 -87 23 -74 0 -95 -4 -128 -23z"/>
<path d="M8997 15219 c-112 -16 -231 -91 -330 -208 -136 -159 -350 -594 -427
-866 -69 -248 -104 -465 -120 -760 -28 -511 -1 -808 100 -1117 87 -265 209
-470 380 -638 135 -133 249 -214 423 -300 160 -80 244 -102 362 -98 79 3 80 3
83 30 2 15 -1 35 -6 45 -6 10 -87 61 -182 113 -352 195 -540 375 -690 663 -94
180 -167 417 -196 640 -13 100 -15 179 -11 432 4 171 11 355 17 410 21 200 68
426 124 597 66 202 241 574 338 721 74 111 180 220 239 246 35 16 43 25 45 48
3 54 -21 61 -149 42z"/>
<path d="M6087 14633 c-34 -52 -83 -194 -107 -311 -39 -193 -52 -340 -57 -658
-6 -341 2 -497 43 -789 127 -910 435 -1585 901 -1975 128 -107 367 -266 501
-332 106 -53 107 -53 215 -57 l109 -3 -7 33 c-12 57 -29 73 -212 196 -387 260
-563 428 -747 710 -262 404 -438 956 -523 1643 -14 117 -18 218 -18 520 1 410
15 575 71 815 14 61 28 131 31 158 l6 47 -84 2 -84 2 80 3 c105 5 124 23 25
23 -41 0 -85 3 -97 6 -17 5 -27 -2 -46 -33z"/>
<path d="M4444 13997 c-3 -8 0 -34 7 -58 19 -76 66 -388 80 -529 19 -209 17
-513 -5 -645 -42 -257 -126 -511 -244 -745 -143 -283 -303 -469 -536 -623
-133 -86 -229 -132 -368 -173 -67 -20 -129 -41 -136 -47 -8 -6 -12 -26 -10
-51 l3 -41 125 1 c227 2 404 61 630 212 290 193 491 461 653 872 107 271 167
583 167 864 0 310 -55 720 -112 835 l-23 46 -87 3 -86 3 9 31 c10 36 6 43 -34
52 -19 4 -29 2 -33 -7z"/>
<path d="M22367 13913 c-15 -15 -5 -62 21 -104 16 -24 58 -80 93 -123 126
-157 146 -182 188 -244 23 -35 64 -107 91 -160 55 -111 220 -536 256 -662 25
-84 73 -355 94 -520 11 -91 34 -470 45 -735 11 -249 -17 -478 -81 -678 -50
-156 -235 -665 -277 -763 -81 -189 -211 -427 -318 -586 -21 -31 -121 -137
-221 -235 -101 -98 -226 -221 -278 -273 -53 -52 -114 -107 -135 -121 -160
-103 -202 -134 -216 -157 -13 -23 -116 -103 -306 -235 -28 -20 -123 -78 -210
-129 -87 -50 -194 -115 -238 -143 -44 -28 -150 -91 -235 -140 -85 -48 -216
-130 -291 -180 -321 -216 -497 -292 -929 -400 -80 -20 -221 -58 -315 -85 -281
-80 -443 -121 -580 -146 -71 -13 -215 -41 -320 -63 -213 -45 -399 -72 -650
-96 -294 -28 -491 -54 -637 -85 -345 -74 -736 -128 -1013 -140 -517 -24 -587
-24 -835 0 -300 28 -340 35 -608 114 -222 66 -254 77 -489 175 -68 28 -221 80
-340 117 -272 83 -326 102 -490 176 -147 65 -261 124 -340 174 -123 78 -172
97 -270 102 -110 6 -119 -3 -85 -74 57 -116 423 -314 803 -434 367 -116 421
-135 578 -201 167 -71 564 -195 714 -224 202 -38 493 -59 832 -60 363 0 807
18 997 40 169 20 583 88 753 124 156 33 290 51 600 81 272 27 465 54 645 91
80 17 225 45 322 64 182 35 364 80 638 159 85 24 238 65 340 91 398 102 583
182 885 382 99 66 239 152 310 192 72 41 182 106 245 146 63 39 165 100 225
135 61 34 135 79 165 99 76 49 352 245 425 301 33 25 122 88 199 140 108 73
150 107 190 158 28 36 81 98 119 137 37 39 67 76 67 82 0 6 26 34 58 61 111
98 182 171 182 188 0 9 35 76 79 148 150 250 222 411 375 833 151 419 183 527
206 710 24 187 26 389 5 754 -18 328 -28 434 -66 674 -37 236 -61 328 -143
548 -125 334 -187 477 -254 581 -98 152 -295 381 -353 411 -29 15 -209 22
-222 8z"/>
<path d="M8912 13673 c1 -5 -4 -21 -10 -36 -7 -16 -10 -33 -6 -38 3 -5 0 -9
-5 -9 -6 0 -11 -7 -11 -15 0 -12 -14 -15 -70 -15 l-70 0 0 -114 c0 -384 127
-780 375 -1175 121 -192 253 -346 320 -371 14 -5 62 -10 106 -10 69 0 79 2 79
18 0 28 -50 117 -172 307 -359 560 -446 802 -465 1293 l-6 172 -34 0 c-18 0
-32 -3 -31 -7z"/>
<path d="M7376 12653 c38 -244 145 -574 280 -862 91 -192 293 -530 432 -721
141 -194 382 -394 612 -510 115 -58 206 -90 254 -90 41 0 43 -3 81 -115 32
-98 74 -175 154 -282 64 -85 134 -154 186 -181 18 -9 65 -17 117 -20 75 -4 89
-2 94 12 11 29 -27 96 -139 239 -123 160 -161 233 -210 405 -20 68 -37 125
-39 127 -2 2 -52 5 -112 6 -82 1 -110 -2 -117 -12 -10 -16 -21 -10 -184 96
-303 199 -440 353 -707 795 -225 373 -310 564 -454 1023 l-28 87 -63 0 c-35 0
-63 4 -63 10 0 6 26 10 57 10 85 0 60 6 -55 14 l-102 7 6 -38z"/>
<path d="M10360 12020 c0 -27 15 -68 50 -137 79 -155 100 -264 100 -538 0
-256 -26 -427 -101 -661 -58 -184 -160 -428 -245 -584 -78 -145 -134 -266
-134 -290 0 -16 146 -12 178 4 58 30 216 234 280 361 121 242 226 554 269 800
24 143 25 601 0 731 -28 151 -73 262 -130 322 l-31 32 -118 0 -118 0 0 -40z"/>
<path d="M6009 10973 c-21 -57 -60 -232 -76 -348 -25 -175 -25 -695 0 -895 69
-563 182 -936 392 -1297 277 -474 897 -1102 1426 -1445 151 -99 334 -203 422
-241 65 -27 82 -30 181 -31 l109 -1 9 30 c11 42 -1 51 -252 206 -319 196 -456
292 -675 478 -200 169 -550 529 -725 746 -166 204 -348 521 -435 758 -128 350
-202 766 -212 1192 -6 252 3 395 43 670 13 94 24 178 24 188 0 15 -12 17 -110
17 l-110 0 -11 -27z"/>
<path d="M5144 10926 c-17 -8 -94 -72 -171 -143 -265 -243 -411 -318 -720
-373 -119 -21 -271 31 -498 170 -66 40 -183 121 -259 179 l-139 106 -74 4
c-41 2 -79 -1 -84 -6 -15 -15 38 -107 110 -190 77 -89 162 -157 311 -247 189
-114 316 -146 580 -146 376 0 638 84 887 285 186 149 328 346 267 369 -29 11
-179 5 -210 -8z"/>
<path d="M19805 10003 c-280 -39 -514 -123 -890 -321 -511 -268 -665 -370
-854 -561 -129 -131 -153 -166 -149 -217 l3 -39 110 -5 110 -5 135 135 c152
152 257 234 439 343 243 145 678 369 838 431 202 79 410 126 553 126 84 0 90
4 90 58 0 55 -5 57 -187 58 -92 1 -181 0 -198 -3z"/>
<path d="M8955 9261 c-91 -22 -278 -160 -404 -297 -307 -335 -383 -794 -246
-1479 64 -319 147 -568 280 -842 43 -87 79 -148 108 -178 l44 -45 106 0 107 0
0 26 c0 14 -22 67 -49 117 -69 129 -212 495 -260 665 -81 288 -132 603 -133
832 -1 258 57 475 176 659 79 123 270 309 406 395 75 48 90 66 90 107 0 24 -5
39 -16 43 -21 8 -171 6 -209 -3z"/>
<path d="M7058 9203 c23 -2 59 -2 80 0 20 2 1 4 -43 4 -44 0 -61 -2 -37 -4z"/>
<path d="M6984 9171 c4 -5 1 -22 -5 -38 -6 -15 -10 -30 -9 -32 1 -2 -5 -8 -14
-13 -9 -5 -14 -13 -11 -18 3 -5 1 -11 -5 -15 -15 -9 -12 -217 5 -348 36 -277
148 -568 295 -765 110 -147 320 -324 484 -407 83 -43 92 -45 172 -45 61 0 84
3 83 13 -2 45 -46 95 -201 231 -277 243 -361 350 -464 590 -94 218 -132 407
-135 661 0 78 -3 153 -6 168 l-5 27 -95 0 c-54 0 -92 -4 -89 -9z"/>
<path d="M9664 8898 c8 -51 77 -209 136 -312 130 -228 479 -511 865 -702 297
-148 520 -196 900 -197 242 0 352 11 495 49 124 32 140 43 140 94 0 34 -3 40
-26 46 -45 11 -203 -3 -334 -31 -223 -47 -346 -44 -577 10 -307 73 -668 274
-1001 557 -124 106 -202 200 -301 364 -46 76 -91 145 -99 152 -10 8 -50 12
-110 12 l-95 0 7 -42z"/>
<path d="M8708 8488 c-23 -41 -14 -258 15 -368 92 -352 274 -677 490 -875 215
-197 423 -312 677 -372 92 -22 135 -26 348 -30 l242 -5 0 51 c0 59 6 57 -145
66 -338 21 -617 147 -886 402 -139 133 -234 263 -324 448 -133 270 -175 410
-175 582 0 124 1 123 -134 123 -88 0 -96 -2 -108 -22z"/>
<path d="M10329 7788 c-3 -30 5 -54 70 -205 80 -184 111 -278 153 -458 75
-328 37 -712 -102 -1002 -126 -265 -273 -413 -465 -468 -107 -31 -105 -29
-105 -79 0 -26 6 -48 15 -56 32 -27 203 -42 420 -37 183 4 222 8 306 30 122
32 214 72 319 137 369 228 697 621 781 936 29 105 31 337 6 433 -33 121 -25
116 -160 119 -101 2 -118 0 -124 -14 -3 -9 4 -72 17 -141 38 -205 18 -333 -81
-522 -72 -138 -148 -239 -297 -392 -192 -199 -391 -343 -561 -407 -138 -53
-140 -51 -52 33 328 314 469 911 345 1464 -71 318 -199 585 -301 627 -42 18
-183 19 -184 2z"/>
</g>
</svg>
