<svg xmlns="http://www.w3.org/2000/svg" version="1.1" xmlns:xlink="http://www.w3.org/1999/xlink" xmlns:svgjs="http://svgjs.dev/svgjs" viewBox="0 0 1422 800"><g fill="hsl(0, 0%, 0%)"><path d="M830 115H880C908 115 930 137 930 165H880C852 165 830 143 830 115Z " transform="matrix(-0.3654678710501113,0.031974295599839136,-0.031974295599839136,-0.3654678710501113,1206.0881279080754,163.02812181915715)" opacity="0.56"></path><path d="M1058 297H1108C1136 297 1158 319 1158 347H1108C1080 347 1058 325 1058 297Z " transform="matrix(-0.3415406893702148,-0.26684083147214416,0.26684083147214416,-0.3415406893702148,1400.5043360881677,727.6357432483449)" opacity="0.67"></path><path d="M1042 665H1092C1120 665 1142 687 1142 715H1092C1064 715 1042 693 1042 665Z " transform="matrix(-0.3377627705783209,-0.27351489862203265,0.27351489862203265,-0.3377627705783209,1272.111665422324,1221.734580994301)" opacity="0.67"></path><path d="M1324 188H1374C1402 188 1424 210 1424 238H1374C1346 238 1324 216 1324 188Z " transform="matrix(-0.3404478520948672,0.09122272703373006,-0.09122272703373006,-0.3404478520948672,1861.205789636532,160.1753655518616)" opacity="0.54"></path><path d="M5 659H55C83 659 105 681 105 709H55C27 709 5 687 5 659Z " transform="matrix(0.02703250262779501,-0.5158108776523275,0.5158108776523275,0.02703250262779501,-299.30142795872075,693.8793664734662)" opacity="0.79"></path><path d="M937 11H987C1015 11 1037 33 1037 61H987C959 61 937 39 937 11Z " transform="matrix(-0.3575163739054874,0.05662503078787832,-0.05662503078787832,-0.3575163739054874,1341.9071621530798,-7.018315927038351)" opacity="0.55"></path><path d="M1186 610H1236C1264 610 1286 632 1286 660H1236C1208 660 1186 638 1186 610Z " transform="matrix(-0.37403417967198344,-0.1744150023927685,0.1744150023927685,-0.37403417967198344,1587.5527195551638,1088.0886470491714)" opacity="0.63"></path><path d="M1256 632H1306C1334 632 1356 654 1356 682H1306C1278 682 1256 660 1256 632Z " transform="matrix(-0.3795753917493084,-0.026542497037238,0.026542497037238,-0.3795753917493084,1784.2870410711314,941.0455335099283)" opacity="0.58"></path><path d="M772 22H822C850 22 872 44 872 72H822C794 72 772 50 772 22Z " transform="matrix(-0.17207440672272128,0.236840102388957,-0.236840102388957,-0.17207440672272128,974.5766471383579,-139.59506704775475)" opacity="0.45"></path><path d="M1011 36H1061C1089 36 1111 58 1111 86H1061C1033 86 1011 64 1011 36Z " transform="matrix(-0.3850734254034753,-0.09600958810383092,0.09600958810383092,-0.3850734254034753,1463.7063194787536,186.3556519277766)" opacity="0.61"></path><path d="M820 573H870C898 573 920 595 920 623H870C842 623 820 601 820 573Z " transform="matrix(-0.37028391757908796,-0.18866907954504253,0.18866907954504253,-0.37028391757908796,1079.322898725871,983.5718819164816)" opacity="0.64"></path><path d="M292 649H342C370 649 392 671 392 699H342C314 699 292 677 292 649Z " transform="matrix(-0.2693501424389519,-0.3707286663293086,0.3707286663293086,-0.2693501424389519,184.24662760816753,982.3311998884772)" opacity="0.70"></path><path d="M467 673H517C545 673 567 695 567 723H517C489 723 467 701 467 673Z " transform="matrix(-0.3726876440395142,-0.18177190935390442,0.18177190935390442,-0.3726876440395142,582.8027192394036,1052.1120526755494)" opacity="0.64"></path><path d="M243 731H293C321 731 343 753 343 781H293C265 781 243 759 243 731Z " transform="matrix(-0.2002967890351643,-0.4295378502417523,0.4295378502417523,-0.2002967890351643,26.956344404538356,1033.2789626314177)" opacity="0.73"></path><path d="M1229 120H1279C1307 120 1329 142 1329 170H1279C1251 170 1229 148 1229 120Z " transform="matrix(-0.37457856671878553,-0.1746688542416927,0.1746688542416927,-0.37457856671878553,1732.7590029682813,422.71535674934887)" opacity="0.63"></path><path d="M227 342H277C305 342 327 364 327 392H277C249 392 227 370 227 342Z " transform="matrix(-0.2002967890351643,-0.4295378502417523,0.4295378502417523,-0.2002967890351643,174.8418195240174,559.4909060928708)" opacity="0.73"></path><path d="M72 585H122C150 585 172 607 172 635H122C94 635 72 613 72 585Z " transform="matrix(-0.026554054126285764,-0.5066815363969874,0.5066815363969874,-0.026554054126285764,-183.83614259875543,688.0131204574668)" opacity="0.78"></path><path d="M73 304H123C151 304 173 326 173 354H123C95 354 73 332 73 304Z " transform="matrix(-0.026554054126285764,-0.5066815363969874,0.5066815363969874,-0.026554054126285764,-40.43207681707571,400.0581127843775)" opacity="0.78"></path><path d="M250 558H300C328 558 350 580 350 608H300C272 608 250 586 250 558Z " transform="matrix(-0.2330605895801732,-0.4036727823948172,0.4036727823948172,-0.2330605895801732,134.57694473787356,839.9761584436862)" opacity="0.72"></path><path d="M739 584H789C817 584 839 606 839 634H789C761 634 739 612 739 584Z " transform="matrix(-0.3818180584139916,-0.13147050076458375,0.13147050076458375,-0.3818180584139916,1010.1889131230079,945.2574226773775)" opacity="0.62"></path><path d="M310 208H360C388 208 410 230 410 258H360C332 258 310 236 310 208Z " transform="matrix(-0.29547668704272745,-0.33990704584428283,0.33990704584428283,-0.29547668704272745,387.17326565366403,424.21260458489735)" opacity="0.69"></path><path d="M891 266H941C969 266 991 288 991 316H941C913 316 891 294 891 266Z " transform="matrix(-0.3593887093444879,-0.22457098989161975,0.22457098989161975,-0.3593887093444879,1213.8346174347018,606.9034159072603)" opacity="0.65"></path><path d="M-6 506H44C72 506 94 528 94 556H44C16 556 -6 534 -6 506Z " transform="matrix(0.02703250262779501,-0.5158108776523275,0.5158108776523275,0.02703250262779501,-231.0850061490089,539.3414197213433)" opacity="0.79"></path><path d="M1248 22H1298C1326 22 1348 44 1348 72H1298C1270 72 1248 50 1248 22Z " transform="matrix(-0.2684650199725738,-0.369510399769183,0.369510399769183,-0.2684650199725738,1629.1006071352492,539.2423548391105)" opacity="0.70"></path><path d="M1130 361H1180C1208 361 1230 383 1230 411H1180C1152 411 1130 389 1130 361Z " transform="matrix(-0.35346086019533995,-0.23841236057220697,0.23841236057220697,-0.35346086019533995,1505.0566438496294,803.7624775106054)" opacity="0.65"></path><path d="M702 433H752C780 433 802 455 802 483H752C724 483 702 461 702 433Z " transform="matrix(-0.38336850351287827,-0.11720751382877896,0.11720751382877896,-0.38336850351287827,986.6120733081037,721.7228250081401)" opacity="0.62"></path><path d="M430 595H480C508 595 530 617 530 645H480C452 645 430 623 430 595Z " transform="matrix(-0.36449032442544876,-0.21043858692404693,0.21043858692404693,-0.36449032442544876,524.4834318313063,946.9945228673207)" opacity="0.65"></path><path d="M803 209H853C881 209 903 231 903 259H853C825 259 803 237 803 209Z " transform="matrix(-0.37581915176503045,-0.16732546685411354,0.16732546685411354,-0.37581915176503045,1134.4195772117082,464.67030473957595)" opacity="0.63"></path><path d="M188 11H238C266 11 288 33 288 61H238C210 61 188 39 188 11Z " transform="matrix(-0.3852192945462246,-0.08893488171855236,0.08893488171855236,-0.3852192945462246,326.48053636013356,71.03439645267954)" opacity="0.61"></path><path d="M1091 736H1141C1169 736 1191 758 1191 786H1141C1113 786 1091 764 1091 736Z " transform="matrix(-0.3484393455631474,-0.25315600298198254,0.25315600298198254,-0.3484393455631474,1345.9175750182624,1315.0133413759972)" opacity="0.66"></path><path d="M1331 17H1381C1409 17 1431 39 1431 67H1381C1353 67 1331 45 1331 17Z " transform="matrix(-0.34770950906933856,-0.2526257457307401,0.2526257457307401,-0.34770950906933856,1850.5765507040655,405.47995423506427)" opacity="0.66"></path><path d="M736 279H786C814 279 836 301 836 329H786C758 329 736 307 736 279Z " transform="matrix(-0.3818180584139916,-0.13147050076458375,0.13147050076458375,-0.3818180584139916,1046.141961680964,523.4085033588162)" opacity="0.62"></path><path d="M922 95H972C1000 95 1022 117 1022 145H972C944 145 922 123 922 95Z " transform="matrix(-0.3835054046786968,-0.06074128888147014,0.06074128888147014,-0.3835054046786968,1337.4782986819168,225.0611813542326)" opacity="0.60"></path><path d="M1330 467H1380C1408 467 1430 489 1430 517H1380C1352 517 1330 495 1330 467Z " transform="matrix(-0.3404478520948672,0.09122272703373006,-0.09122272703373006,-0.3404478520948672,1894.6996175915122,533.6129799241271)" opacity="0.54"></path><path d="M1096 449H1146C1174 449 1196 471 1196 499H1146C1118 499 1096 477 1096 449Z " transform="matrix(-0.3484393455631474,-0.25315600298198254,0.25315600298198254,-0.3484393455631474,1425.3155446019073,929.2770292142837)" opacity="0.66"></path><path d="M914 731H964C992 731 1014 753 1014 781H964C936 781 914 759 914 731Z " transform="matrix(-0.3543891329169368,-0.23903848842887654,0.23903848842887654,-0.3543891329169368,1124.9180268796963,1254.3512873306413)" opacity="0.66"></path><path d="M1119 643H1169C1197 643 1219 665 1219 693H1169C1141 693 1119 671 1119 643Z " transform="matrix(-0.35346086019533995,-0.23841236057220697,0.23841236057220697,-0.35346086019533995,1422.9362887061181,1182.8159041193971)" opacity="0.65"></path><path d="M1026 490H1076C1104 490 1126 512 1126 540H1076C1048 540 1026 518 1026 490Z " transform="matrix(-0.3377627705783209,-0.27351489862203265,0.27351489862203265,-0.3377627705783209,1298.5725683519263,983.2498577651425)" opacity="0.67"></path><path d="M553 476H603C631 476 653 498 653 526H603C575 526 553 504 553 476Z " transform="matrix(-0.3836647212749329,-0.11729807668703207,0.11729807668703207,-0.3836647212749329,775.5834905085816,763.9467656010215)" opacity="0.62"></path><path d="M1167 31H1217C1245 31 1267 53 1267 81H1217C1189 81 1167 59 1167 31Z " transform="matrix(-0.26890306199266956,-0.37011331288604943,0.37011331288604943,-0.26890306199266956,1523.5286809234601,521.4864732539116)" opacity="0.70"></path><path d="M1235 525H1285C1313 525 1335 547 1335 575H1285C1257 575 1235 553 1235 525Z " transform="matrix(-0.3841004404253104,-0.08164306895274503,0.08164306895274503,-0.3841004404253104,1733.6653780225142,866.1665858381981)" opacity="0.60"></path><path d="M491 540H541C569 540 591 562 591 590H541C513 590 491 568 491 540Z " transform="matrix(-0.37940621497655463,-0.1532900610953795,0.1532900610953795,-0.37940621497655463,659.6498777834266,862.2944345143537)" opacity="0.63"></path><path d="M1332 732H1382C1410 732 1432 754 1432 782H1382C1354 782 1332 760 1332 732Z " transform="matrix(-0.3404478520948672,0.09122272703373006,-0.09122272703373006,-0.3404478520948672,1921.5545359596401,888.6492152751994)" opacity="0.54"></path><path d="M571 731H621C649 731 671 753 671 781H621C593 781 571 759 571 731Z " transform="matrix(-0.3836647212749329,-0.11729807668703207,0.11729807668703207,-0.3836647212749329,770.5784459363371,1118.8926349064961)" opacity="0.62"></path><path d="M761 377H811C839 377 861 399 861 427H811C783 427 761 405 761 377Z " transform="matrix(-0.38033234420021544,-0.1459959082991734,0.1459959082991734,-0.38033234420021544,1060.7591760101072,673.2962839991162)" opacity="0.63"></path><path d="M1175 722H1225C1253 722 1275 744 1275 772H1225C1197 772 1175 750 1175 722Z " transform="matrix(-0.37403417967198344,-0.1744150023927685,0.1744150023927685,-0.37403417967198344,1552.9038633107816,1240.061910146113)" opacity="0.63"></path><path d="M400 514H450C478 514 500 536 500 564H450C422 564 400 542 400 514Z " transform="matrix(-0.3503630777194052,-0.24532686812948176,0.24532686812948176,-0.3503630777194052,475.43220305194166,838.2427895490262)" opacity="0.66"></path><path d="M469 230H519C547 230 569 252 569 280H519C491 280 469 258 469 230Z " transform="matrix(-0.3726876440395142,-0.18177190935390442,0.18177190935390442,-0.3726876440395142,666.0730503712623,444.3749701847525)" opacity="0.64"></path><path d="M879 504H929C957 504 979 526 979 554H929C901 554 879 532 879 504Z " transform="matrix(-0.3593887093444879,-0.22457098989161975,0.22457098989161975,-0.3593887093444879,1144.0740573283624,927.7430768525489)" opacity="0.65"></path><path d="M1328 369H1378C1406 369 1428 391 1428 419H1378C1350 419 1328 397 1328 369Z " transform="matrix(-0.3404478520948672,0.09122272703373006,-0.09122272703373006,-0.3404478520948672,1883.078894638017,402.4315358728976)" opacity="0.54"></path><path d="M963 646H1013C1041 646 1063 668 1063 696H1013C985 696 963 674 963 646Z " transform="matrix(-0.341227878341585,-0.2665964367116629,0.2665964367116629,-0.341227878341585,1179.7776317264997,1170.026096756118)" opacity="0.66"></path><path d="M646 257H696C724 257 746 279 746 307H696C668 307 646 285 646 257Z " transform="matrix(-0.3841292520642726,-0.10292712287979285,0.10292712287979285,-0.3841292520642726,934.3285107846323,461.96172660646073)" opacity="0.61"></path><path d="M-9 736H41C69 736 91 758 91 786H41C13 786 -9 764 -9 736Z " transform="matrix(0.02703250262779501,-0.5158108776523275,0.5158108776523275,0.02703250262779501,-352.64041050116083,761.5765114839934)" opacity="0.79"></path><path d="M-12 584H38C66 584 88 606 88 634H38C10 634 -12 612 -12 584Z " transform="matrix(0.02703250262779501,-0.5158108776523275,0.5158108776523275,0.02703250262779501,-277.1560595901237,612.1380192504613)" opacity="0.79"></path><path d="M377 352H427C455 352 477 374 477 402H427C399 402 377 380 377 352Z " transform="matrix(-0.33806214485240915,-0.2737573271291387,0.2737573271291387,-0.33806214485240915,468.1460235242934,621.3438072935005)" opacity="0.67"></path><path d="M86 114H136C164 114 186 136 186 164H136C108 164 86 142 86 114Z " transform="matrix(-0.21403017052359555,-0.4200578611646673,0.4200578611646673,-0.21403017052359555,106.72006048932025,225.87806282117458)" opacity="0.72"></path><path d="M1179 443H1229C1257 443 1279 465 1279 493H1229C1201 493 1179 471 1179 443Z " transform="matrix(-0.37403417967198344,-0.1744150023927685,0.1744150023927685,-0.37403417967198344,1607.0617856970518,857.4040340272007)" opacity="0.63"></path><path d="M-5 167H45C73 167 95 189 95 217H45C17 217 -5 195 -5 167Z " transform="matrix(0.02703250262779501,-0.5158108776523275,0.5158108776523275,0.02703250262779501,-55.25215112749767,210.0212489898181)" opacity="0.79"></path><path d="M340 575H390C418 575 440 597 440 625H390C362 625 340 603 340 575Z " transform="matrix(-0.3183810208085328,-0.30745697790641763,0.30745697790641763,-0.3183810208085328,329.6944113714772,910.9368338686226)" opacity="0.68"></path><path d="M-8 340H42C70 340 92 362 92 390H42C14 390 -8 368 -8 340Z " transform="matrix(0.02703250262779501,-0.5158108776523275,0.5158108776523275,0.02703250262779501,-147.40633545346694,376.79719340225256)" opacity="0.79"></path><path d="M596 655H646C674 655 696 677 696 705H646C618 705 596 683 596 655Z " transform="matrix(-0.3833984324261871,-0.10993773140536921,0.10993773140536921,-0.3833984324261871,818.9177299916657,1011.7307085376758)" opacity="0.61"></path><path d="M412 737H462C490 737 512 759 512 787H462C434 787 412 765 412 737Z " transform="matrix(-0.3503630777194052,-0.24532686812948176,0.24532686812948176,-0.3503630777194052,436.9286683917001,1142.3176782980072)" opacity="0.66"></path><path d="M384 193H434C462 193 484 215 484 243H434C406 243 384 221 384 193Z " transform="matrix(-0.33806214485240915,-0.2737573271291387,0.2737573271291387,-0.33806214485240915,521.0398735517933,410.5082275518714)" opacity="0.67"></path><path d="M306 300H356C384 300 406 322 406 350H356C328 350 306 328 306 300Z " transform="matrix(-0.29547668704272745,-0.33990704584428283,0.33990704584428283,-0.29547668704272745,350.71991068781904,542.0368316094512)" opacity="0.69"></path><path d="M1160 174H1210C1238 174 1260 196 1260 224H1210C1182 224 1160 202 1160 174Z " transform="matrix(-0.36403421466936686,-0.21017525183359304,0.21017525183359304,-0.36403421466936686,1608.6565246350492,525.7548634378516)" opacity="0.65"></path><path d="M374 437H424C452 437 474 459 474 487H424C396 487 374 465 374 437Z " transform="matrix(-0.33806214485240915,-0.2737573271291387,0.2737573271291387,-0.33806214485240915,440.8624642837594,734.2578176245679)" opacity="0.67"></path><path d="M840 420H890C918 420 940 442 940 470H890C862 470 840 448 840 420Z " transform="matrix(-0.3671372090764164,-0.2035074781161652,0.2035074781161652,-0.3671372090764164,1126.191288316317,789.4977135623924)" opacity="0.64"></path><path d="M615 171H665C693 171 715 193 715 221H665C637 221 615 199 615 171Z " transform="matrix(-0.38412968917696183,-0.10292724000378492,0.10292724000378492,-0.38412968917696183,900.2725042619378,339.73603368120143)" opacity="0.61"></path><path d="M494 86H544C572 86 594 108 594 136H544C516 136 494 114 494 86Z " transform="matrix(-0.35218841470362716,0.0684584929248141,-0.0684584929248141,-0.35218841470362716,743.1893903134275,112.85149388100375)" opacity="0.55"></path><path d="M417 56H467C495 56 517 78 517 106H467C439 106 417 84 417 56Z " transform="matrix(-0.36994999733998435,0.01938825780635557,-0.01938825780635557,-0.36994999733998435,641.3370976400874,101.91163338897067)" opacity="0.57"></path><path d="M147 452H197C225 452 247 474 247 502H197C169 502 147 480 147 452Z " transform="matrix(-0.09462858235127564,-0.48682185336083056,0.48682185336083056,-0.09462858235127564,-16.57219332991488,618.0417388936421)" opacity="0.76"></path><path d="M964 545H1014C1042 545 1064 567 1064 595H1014C986 595 964 573 964 545Z " transform="matrix(-0.341227878341585,-0.2665964367116629,0.2665964367116629,-0.341227878341585,1208.0450997127193,1034.8286774803296)" opacity="0.66"></path><path d="M981 230H1031C1059 230 1081 252 1081 280H1031C1003 280 981 258 981 230Z " transform="matrix(-0.341227878341585,-0.2665964367116629,0.2665964367116629,-0.341227878341585,1314.8238512087,616.8740352268285)" opacity="0.66"></path><path d="M531 392H581C609 392 631 414 631 442H581C553 442 531 420 531 392Z " transform="matrix(-0.3826281715475308,-0.13174944508634992,0.13174944508634992,-0.3826281715475308,748.3674490681076,653.1023751304897)" opacity="0.62"></path><path d="M1003 135H1053C1081 135 1103 157 1103 185H1053C1025 185 1003 163 1003 135Z " transform="matrix(-0.36506303901306775,-0.2107692438453776,0.2107692438453776,-0.36506303901306775,1403.6883010655,440.35010001127347)" opacity="0.65"></path><path d="M632 496H682C710 496 732 518 732 546H682C654 546 632 524 632 496Z " transform="matrix(-0.3841292520642726,-0.10292712287979285,0.10292712287979285,-0.3841292520642726,890.3511188874618,791.3276381295047)" opacity="0.61"></path><path d="M556 244H606C634 244 656 266 656 294H606C578 294 556 272 556 244Z " transform="matrix(-0.3836647212749329,-0.11729807668703207,0.11729807668703207,-0.3836647212749329,806.9476384637977,443.28844449529834)" opacity="0.62"></path><path d="M1028 391H1078C1106 391 1128 413 1128 441H1078C1050 441 1028 419 1028 391Z " transform="matrix(-0.3377627705783209,-0.27351489862203265,0.27351489862203265,-0.3377627705783209,1328.3260688566643,851.3583732751326)" opacity="0.67"></path><path d="M378 659H428C456 659 478 681 478 709H428C400 709 378 687 378 659Z " transform="matrix(-0.33806214485240915,-0.2737573271291387,0.2737573271291387,-0.33806214485240915,385.44058624050024,1032.402643090319)" opacity="0.67"></path><path d="M339 108H389C417 108 439 130 439 158H389C361 158 339 136 339 108Z " transform="matrix(-0.3661460127933963,-0.20295804904472087,0.20295804904472087,-0.3661460127933963,504.4373784536833,260.64810077991814)" opacity="0.64"></path><path d="M-3 86H47C75 86 97 108 97 136H47C19 136 -3 114 -3 86Z " transform="matrix(-0.27985370505427887,-0.35819640802245434,0.35819640802245434,-0.27985370505427887,20.393322847058673,158.8989924380803)" opacity="0.70"></path><path d="M225 453H275C303 453 325 475 325 503H275C247 503 225 481 225 453Z " transform="matrix(-0.2002967890351643,-0.4295378502417523,0.4295378502417523,-0.2002967890351643,124.7625245691126,691.8647739752904)" opacity="0.73"></path><path d="M579 323H629C657 323 679 345 679 373H629C601 373 579 351 579 323Z " transform="matrix(-0.3833984324261871,-0.10993773140536921,0.10993773140536921,-0.3833984324261871,831.8992834670032,550.5734875382904)" opacity="0.61"></path><path d="M616 409H666C694 409 716 431 716 459H666C638 459 616 437 616 409Z " transform="matrix(-0.38412968917696183,-0.10292724000378492,0.10292724000378492,-0.38412968917696183,877.1599508302139,669.2618269453221)" opacity="0.61"></path><path d="M1324 280H1374C1402 280 1424 302 1424 330H1374C1346 330 1324 308 1324 280Z " transform="matrix(-0.3404478520948672,0.09122272703373006,-0.09122272703373006,-0.3404478520948672,1869.5982805236354,283.49656794458934)" opacity="0.54"></path><path d="M-8 426H42C70 426 92 448 92 476H42C14 476 -8 454 -8 426Z " transform="matrix(0.02703250262779501,-0.5158108776523275,0.5158108776523275,0.02703250262779501,-191.76607093156713,460.47239817626223)" opacity="0.79"></path><path d="M1229 334H1279C1307 334 1329 356 1329 384H1279C1251 384 1229 362 1229 334Z " transform="matrix(-0.3841004404253104,-0.08164306895274503,0.08164306895274503,-0.3841004404253104,1740.9546015499366,601.3135433032473)" opacity="0.60"></path><path d="M776 658H826C854 658 876 680 876 708H826C798 708 776 686 776 658Z " transform="matrix(-0.38033234420021544,-0.1459959082991734,0.1459959082991734,-0.38033234420021544,1040.4393109410425,1063.3596113438643)" opacity="0.63"></path><path d="M166 177H216C244 177 266 199 266 227H216C188 227 166 205 166 177Z " transform="matrix(-0.126570809691049,-0.4723686925221264,0.4723686925221264,-0.126570809691049,147.92081900379705,329.5989411423712)" opacity="0.75"></path><path d="M164 547H214C242 547 264 569 264 597H214C186 597 164 575 164 547Z " transform="matrix(-0.126570809691049,-0.4723686925221264,0.4723686925221264,-0.126570809691049,-29.10873884877182,745.4854033430152)" opacity="0.75"></path><path d="M591 12H641C669 12 691 34 691 62H641C613 62 591 40 591 12Z " transform="matrix(-0.18712529800311892,0.23108049841982578,-0.23108049841982578,-0.18712529800311892,769.4972944615326,-104.19896346099293)" opacity="0.45"></path><path d="M853 22H903C931 22 953 44 953 72H903C875 72 853 50 853 22Z " transform="matrix(-0.2590833504756282,0.18823507241866186,-0.18823507241866186,-0.2590833504756282,1145.7993138831694,-110.79935292169714)" opacity="0.49"></path><path d="M254 135H304C332 135 354 157 354 185H304C276 185 254 163 254 135Z " transform="matrix(-0.2799049140971671,-0.3582619526083918,0.3582619526083918,-0.2799049140971671,331.7691814681961,313.69641984849784)" opacity="0.70"></path><path d="M707 189H757C785 189 807 211 807 239H757C729 239 707 217 707 189Z " transform="matrix(-0.38336850351287827,-0.11720751382877896,0.11720751382877896,-0.38336850351287827,1022.1275491998903,384.7669477201416)" opacity="0.62"></path><path d="M306 491H356C384 491 406 513 406 541H356C328 541 306 519 306 491Z " transform="matrix(-0.29547668704272745,-0.33990704584428283,0.33990704584428283,-0.29547668704272745,285.79766493156103,789.4728788346121)" opacity="0.69"></path><path d="M745 111H795C823 111 845 133 845 161H795C767 161 745 139 745 111Z " transform="matrix(-0.3423924598584128,0.08536802820506198,-0.08536802820506198,-0.3423924598584128,1078.8120574233265,114.69779211771987)" opacity="0.54"></path><path d="M945 439H995C1023 439 1045 461 1045 489H995C967 489 945 467 945 439Z " transform="matrix(-0.34838522531319344,-0.2531166823187647,0.2531166823187647,-0.34838522531319344,1224.1971585907204,877.5018434524926)" opacity="0.66"></path><path d="M361 10H411C439 10 461 32 461 60H411C383 60 361 38 361 10Z " transform="matrix(-0.37148078118050115,0.012972394730218557,-0.012972394730218557,-0.37148078118050115,564.1326348807437,42.67017310719771)" opacity="0.57"></path><path d="M394 274H444C472 274 494 296 494 324H444C416 324 394 302 394 274Z " transform="matrix(-0.33806214485240915,-0.2737573271291387,0.2737573271291387,-0.33806214485240915,512.2461515028572,521.628834556208)" opacity="0.67"></path><path d="M520 625H570C598 625 620 647 620 675H570C542 675 520 653 520 625Z " transform="matrix(-0.3826281715475308,-0.13174944508634992,0.13174944508634992,-0.3826281715475308,702.4609184759652,973.8054952051145)" opacity="0.62"></path><path d="M1239 229H1289C1317 229 1339 251 1339 279H1289C1261 279 1239 257 1239 229Z " transform="matrix(-0.3841004404253104,-0.08164306895274503,0.08164306895274503,-0.3841004404253104,1763.3681281942281,456.7994277481172)" opacity="0.60"></path><path d="M207 641H257C285 641 307 663 307 691H257C229 691 207 669 207 641Z " transform="matrix(-0.16472632778320043,-0.4525818659740228,0.4525818659740228,-0.16472632778320043,-2.0848564984166273,892.0212738589353)" opacity="0.74"></path><path d="M901 179H951C979 179 1001 201 1001 229H951C923 229 901 207 901 179Z " transform="matrix(-0.3543891329169368,-0.23903848842887654,0.23903848842887654,-0.3543891329169368,1239.260213764516,503.6209856109167)" opacity="0.66"></path><path d="M861 662H911C939 662 961 684 961 712H911C883 712 861 690 861 662Z " transform="matrix(-0.3671372090764164,-0.2035074781161652,0.2035074781161652,-0.3671372090764164,1105.65236000281,1124.6185751993246)" opacity="0.64"></path><path d="M497 738H547C575 738 597 760 597 788H547C519 788 497 766 497 738Z " transform="matrix(-0.37940621497655463,-0.1532900610953795,0.1532900610953795,-0.37940621497655463,637.5748829764008,1136.336605446284)" opacity="0.63"></path><path d="M824 737H874C902 737 924 759 924 787H874C846 787 824 765 824 737Z " transform="matrix(-0.37028391757908796,-0.18866907954504253,0.18866907954504253,-0.37028391757908796,1053.8623053508006,1209.0531207176323)" opacity="0.64"></path><path d="M572 88H622C650 88 672 110 672 138H622C594 138 572 116 572 88Z " transform="matrix(-0.32006768102802363,0.12286247152384554,-0.12286247152384554,-0.32006768102802363,834.9655568816254,72.74719066833475)" opacity="0.53"></path><path d="M488 8H538C566 8 588 30 588 58H538C510 58 488 36 488 8Z " transform="matrix(-0.2683333773482898,0.18099314837451422,-0.18099314837451422,-0.2683333773482898,688.3361309097389,-55.519312372995074)" opacity="0.50"></path><path d="M785 485H835C863 485 885 507 885 535H835C807 535 785 513 785 485Z " transform="matrix(-0.37581915176503045,-0.16732546685411354,0.16732546685411354,-0.37581915176503045,1063.4730036282026,841.3845322233503)" opacity="0.63"></path><path d="M150 364H200C228 364 250 386 250 414H200C172 414 150 392 150 364Z " transform="matrix(-0.09462858235127564,-0.48682185336083056,0.48682185336083056,-0.09462858235127564,29.55201551289204,523.1748892068123)" opacity="0.76"></path><path d="M1151 269H1201C1229 269 1251 291 1251 319H1201C1173 319 1151 297 1151 269Z " transform="matrix(-0.36403421466936686,-0.21017525183359304,0.21017525183359304,-0.36403421466936686,1576.413567778833,653.4465365649392)" opacity="0.65"></path><path d="M652 735H702C730 735 752 757 752 785H702C674 785 652 763 652 735Z " transform="matrix(-0.3841292520642726,-0.10292712287979285,0.10292712287979285,-0.3841292520642726,893.434121560477,1124.1930718304618)" opacity="0.61"></path><path d="M80 208H130C158 208 180 230 180 258H130C102 258 80 236 80 208Z " transform="matrix(-0.026554054126285764,-0.5066815363969874,0.5066815363969874,-0.026554054126285764,15.395229055919103,305.055694343033)" opacity="0.78"></path><path d="M526 164H576C604 164 626 186 626 214H576C548 214 526 192 526 164Z " transform="matrix(-0.3826281715475308,-0.13174944508634992,0.13174944508634992,-0.3826281715475308,771.4931816900576,337.2044047922208)" opacity="0.62"></path><path d="M178 89H228C256 89 278 111 278 139H228C200 139 178 117 178 89Z " transform="matrix(-0.32659024036168827,-0.29406317324986775,0.29406317324986775,-0.32659024036168827,268.93937305198006,218.2776909022023)" opacity="0.67"></path><path d="M1049 578H1099C1127 578 1149 600 1149 628H1099C1071 628 1049 606 1049 578Z " transform="matrix(-0.3415406893702148,-0.26684083147214416,0.26684083147214416,-0.3415406893702148,1313.4481962401633,1102.2071094781259)" opacity="0.67"></path><path d="M296 396H346C374 396 396 418 396 446H346C318 446 296 424 296 396Z " transform="matrix(-0.2693501424389519,-0.3707286663293086,0.3707286663293086,-0.2693501424389519,283.11838075923845,662.6685285167396)" opacity="0.70"></path><path d="M895 361H945C973 361 995 383 995 411H945C917 411 895 389 895 361Z " transform="matrix(-0.3593887093444879,-0.22457098989161975,0.22457098989161975,-0.3593887093444879,1197.9379282323757,736.943627254553)" opacity="0.65"></path><path d="M234 241H284C312 241 334 263 334 291H284C256 291 234 269 234 241Z " transform="matrix(-0.2002967890351643,-0.4295378502417523,0.4295378502417523,-0.2002967890351643,226.62721992168053,441.26769535201134)" opacity="0.73"></path><path d="M900 594H950C978 594 1000 616 1000 644H950C922 644 900 622 900 594Z " transform="matrix(-0.3543891329169368,-0.23903848842887654,0.23903848842887654,-0.3543891329169368,1138.7048519336154,1065.4534372830167)" opacity="0.66"></path><path d="M1253 728H1303C1331 728 1353 750 1353 778H1303C1275 778 1253 756 1253 728Z " transform="matrix(-0.3841004404253104,-0.08164306895274503,0.08164306895274503,-0.3841004404253104,1742.0056429527624,1148.6085504856856)" opacity="0.60"></path><path d="M737 735H787C815 735 837 757 837 785H787C759 785 737 763 737 735Z " transform="matrix(-0.3818180584139916,-0.13147050076458375,0.13147050076458375,-0.3818180584139916,987.5732313907276,1153.649008496361)" opacity="0.62"></path><path d="M1132 534H1182C1210 534 1232 556 1232 584H1182C1154 584 1132 562 1132 534Z " transform="matrix(-0.35346086019533995,-0.23841236057220697,0.23841236057220697,-0.35346086019533995,1466.5182271910282,1038.3880310455436)" opacity="0.65"></path><path d="M274 30H324C352 30 374 52 374 80H324C296 80 274 58 274 30Z " transform="matrix(-0.38455973547923106,-0.06090827847522967,0.06090827847522967,-0.38455973547923106,445.2473989791332,95.88506767733212)" opacity="0.60"></path><path d="M574 562H624C652 562 674 584 674 612H624C596 612 574 590 574 562Z " transform="matrix(-0.3833984324261871,-0.10993773140536921,0.10993773140536921,-0.3833984324261871,798.707173498989,880.6560242311223)" opacity="0.61"></path><path d="M998 736H1048C1076 736 1098 758 1098 786H1048C1020 786 998 764 998 736Z " transform="matrix(-0.33761294023572264,-0.27339356840290846,0.27339356840290846,-0.33761294023572264,1193.765855812424,1304.439907205633)" opacity="0.67"></path><path d="M651 584H701C729 584 751 606 751 634H701C673 634 651 612 651 584Z " transform="matrix(-0.3841292520642726,-0.10292712287979285,0.10292712287979285,-0.3841292520642726,907.5919878632612,915.0866276458769)" opacity="0.61"></path><path d="M70 400H120C148 400 170 422 170 450H120C92 450 70 428 70 400Z " transform="matrix(-0.026554054126285764,-0.5066815363969874,0.5066815363969874,-0.026554054126285764,-92.15316647356534,497.08725737130993)" opacity="0.78"></path><path d="M671 344H721C749 344 771 366 771 394H721C693 394 671 372 671 344Z " transform="matrix(-0.3833376818356705,-0.10992031145385645,0.10992031145385645,-0.3833376818356705,956.8258736770454,589.7041491555929)" opacity="0.61"></path><path d="M708 515H758C786 515 808 537 808 565H758C730 565 708 543 708 515Z " transform="matrix(-0.38336850351287827,-0.11720751382877896,0.11720751382877896,-0.38336850351287827,985.3012681952212,835.8622873791688)" opacity="0.62"></path><path d="M77 497H127C155 497 177 519 177 547H127C99 547 77 525 77 497Z " transform="matrix(-0.026554054126285764,-0.5066815363969874,0.5066815363969874,-0.026554054126285764,-134.1153971251892,600.2097713763386)" opacity="0.78"></path><path d="M436 142H486C514 142 536 164 536 192H486C458 192 436 170 436 142Z " transform="matrix(-0.38066340387339515,-0.14612299020115765,0.14612299020115765,-0.38066340387339515,646.5998749188767,301.5865616846196)" opacity="0.63"></path><path d="M94 21H144C172 21 194 43 194 71H144C116 71 94 49 94 21Z " transform="matrix(-0.3832239438516961,-0.1171633175050543,0.1171633175050543,-0.3832239438516961,193.79473530941175,80.49981913790585)" opacity="0.61"></path><path d="M686 16H736C764 16 786 38 786 66H736C708 66 686 44 686 16Z " transform="matrix(-0.14682976654245125,0.24436576785491812,-0.24436576785491812,-0.14682976654245125,854.0857046572958,-132.83318471297923)" opacity="0.44"></path><path d="M75 727H125C153 727 175 749 175 777H125C97 777 75 755 75 727Z " transform="matrix(-0.026554054126285764,-0.5066815363969874,0.5066815363969874,-0.026554054126285764,-252.7052586047488,835.3038407525903)" opacity="0.78"></path><path d="M123 646H173C201 646 223 668 223 696H173C145 696 123 674 123 646Z " transform="matrix(-0.061191836748058434,-0.4983675170402555,0.4983675170402555,-0.061191836748058434,-150.81841617659728,798.2773029059115)" opacity="0.77"></path><path d="M687 659H737C765 659 787 681 787 709H737C709 709 687 687 687 659Z " transform="matrix(-0.3833376818356705,-0.10992031145385645,0.10992031145385645,-0.3833376818356705,944.3343784784513,1027.2142439170907)" opacity="0.61"></path><path d="M154 271H204C232 271 254 293 254 321H204C176 321 154 299 154 271Z " transform="matrix(-0.09462858235127564,-0.48682185336083056,0.48682185336083056,-0.09462858235127564,79.20496220485437,423.321718461587)" opacity="0.76"></path><path d="M1256 426H1306C1334 426 1356 448 1356 476H1306C1278 476 1256 454 1256 426Z " transform="matrix(-0.3795753917493084,-0.026542497037238,0.026542497037238,-0.3795753917493084,1789.7547954608026,656.8530028095709)" opacity="0.58"></path><path d="M1324 102H1374C1402 102 1424 124 1424 152H1374C1346 152 1324 130 1324 102Z " transform="matrix(-0.3778664681733219,-0.013195387833741377,0.013195387833741377,-0.3778664681733219,1891.5127130152591,193.11950434157254)" opacity="0.58"></path><path d="M1100 105H1150C1178 105 1200 127 1200 155H1150C1122 155 1100 133 1100 105Z " transform="matrix(-0.35730986220710365,-0.2320397376416493,0.2320397376416493,-0.35730986220710365,1530.7411756447548,443.29598037482015)" opacity="0.65"></path><path d="M659 96H709C737 96 759 118 759 146H709C681 146 659 124 659 96Z " transform="matrix(-0.33741323629717396,0.09675168860216116,-0.09675168860216116,-0.33741323629717396,959.9329388555578,93.2300543730258)" opacity="0.54"></path><path d="M1325 556H1375C1403 556 1425 578 1425 606H1375C1347 606 1325 584 1325 556Z " transform="matrix(-0.3404478520948672,0.09122272703373006,-0.09122272703373006,-0.3404478520948672,1896.1162010370394,653.3689523957389)" opacity="0.54"></path><path d="M-1 11H49C77 11 99 33 99 61H49C21 61 -1 39 -1 11Z " transform="matrix(-0.3827416651996527,-0.12436030559234802,0.12436030559234802,-0.3827416651996527,63.27737059345846,55.87235492121255)" opacity="0.62"></path><path d="M160 731H210C238 731 260 753 260 781H210C182 781 160 759 160 731Z " transform="matrix(-0.126570809691049,-0.4723686925221264,0.4723686925221264,-0.126570809691049,-120.53086151160727,950.8849575560797)" opacity="0.75"></path><path d="M969 325H1019C1047 325 1069 347 1069 375H1019C991 375 969 353 969 325Z " transform="matrix(-0.341227878341585,-0.2665964367116629,0.2665964367116629,-0.341227878341585,1273.402455180993,741.0915264287391)" opacity="0.66"></path><path d="M818 312H868C896 312 918 334 918 362H868C840 362 818 340 818 312Z " transform="matrix(-0.37028391757908796,-0.18866907954504253,0.18866907954504253,-0.37028391757908796,1125.824960651969,625.5504412692495)" opacity="0.64"></path><path d="M446 390H496C524 390 546 412 546 440H496C468 440 446 418 446 390Z " transform="matrix(-0.36449032442544876,-0.21043858692404693,0.21043858692404693,-0.36449032442544876,589.4551873415431,670.6410237508885)" opacity="0.65"></path><path d="M482 314H532C560 314 582 336 582 364H532C504 364 482 342 482 314Z " transform="matrix(-0.3726876440395142,-0.18177190935390442,0.18177190935390442,-0.3726876440395142,668.6491493580479,562.0437671056725)" opacity="0.64"></path><path d="M1334 645H1384C1412 645 1434 667 1434 695H1384C1356 695 1334 673 1334 645Z " transform="matrix(-0.3404478520948672,0.09122272703373006,-0.09122272703373006,-0.3404478520948672,1916.2990544118952,771.8478066888787)" opacity="0.54"></path><path d="M1086 14H1136C1164 14 1186 36 1186 64H1136C1108 64 1086 42 1086 14Z " transform="matrix(-0.3378724457699767,-0.2736037118410732,0.2736037118410732,-0.3378724457699767,1509.1525536328916,362.99084203648823)" opacity="0.67"></path><path d="M327 734H377C405 734 427 756 427 784H377C349 784 327 762 327 734Z " transform="matrix(-0.29547668704272745,-0.33990704584428283,0.33990704584428283,-0.29547668704272745,230.40526321929758,1111.4117617487248)" opacity="0.69"></path><path d="M1073 203H1123C1151 203 1173 225 1173 253H1123C1095 253 1073 231 1073 203Z " transform="matrix(-0.3415406893702148,-0.26684083147214416,0.26684083147214416,-0.3415406893702148,1445.7104845871024,605.533530919627)" opacity="0.67"></path><path d="M-7 252H43C71 252 93 274 93 302H43C15 302 -7 280 -7 252Z " transform="matrix(0.02703250262779501,-0.5158108776523275,0.5158108776523275,0.02703250262779501,-101.0420107226899,291.69186451115087)" opacity="0.79"></path><path d="M470 462H520C548 462 570 484 570 512H520C492 512 470 490 470 462Z " transform="matrix(-0.3726876440395142,-0.18177190935390442,0.18177190935390442,-0.3726876440395142,625.2746550451959,763.0202755112737)" opacity="0.64"></path></g></svg>