<svg xmlns="http://www.w3.org/2000/svg" version="1.1" xmlns:xlink="http://www.w3.org/1999/xlink" xmlns:svgjs="http://svgjs.dev/svgjs" viewBox="0 0 1422 800"><g fill="hsl(0, 0%, 0%)"><path d="M82 305H132C160 305 182 327 182 355H132C104 355 82 333 82 305Z " transform="matrix(-0.37066057309588984,-0.18886099511654558,0.18886099511654558,-0.37066057309588984,118.60306726019742,477.24764047702763)" opacity="0.64"></path><path d="M1110 415H1160C1188 415 1210 437 1210 465H1160C1132 465 1110 443 1110 415Z " transform="matrix(0.15753178989539776,-0.5152632674738552,0.5152632674738552,0.15753178989539776,750.5472860328423,968.3914027156972)" opacity="0.83"></path><path d="M129 449H179C207 449 229 471 229 499H179C151 499 129 477 129 449Z " transform="matrix(-0.333795045183967,-0.28008729930267023,0.28008729930267023,-0.333795045183967,105.9879332184644,682.3544779923784)" opacity="0.67"></path><path d="M-12 163H38C66 163 88 185 88 213H38C10 213 -12 191 -12 163Z " transform="matrix(-0.3824745716676679,-0.04696197233874122,0.04696197233874122,-0.3824745716676679,43.70518292368803,261.6897744223937)" opacity="0.59"></path><path d="M403 661H453C481 661 503 683 503 711H453C425 711 403 689 403 661Z " transform="matrix(-0.01778681151217826,-0.5093476395582058,0.5093476395582058,-0.01778681151217826,111.64494487808753,928.9362334172216)" opacity="0.78"></path><path d="M533 395H583C611 395 633 417 633 445H583C555 445 533 423 533 395Z " transform="matrix(0.11045719414197055,-0.5196602413688238,0.5196602413688238,0.11045719414197055,300.34615444032517,676.5698991783966)" opacity="0.82"></path><path d="M311 253H361C389 253 411 275 411 303H361C333 303 311 281 311 253Z " transform="matrix(-0.1346388500190486,-0.46954147025856047,0.46954147025856047,-0.1346388500190486,279.07209612499673,484.9340710686359)" opacity="0.75"></path><path d="M555 578H605C633 578 655 600 655 628H605C577 628 555 606 555 578Z " transform="matrix(0.1385799599173574,-0.5171874513224355,0.5171874513224355,0.1385799599173574,209.29509110257015,832.334692219907)" opacity="0.82"></path><path d="M961 15H1011C1039 15 1061 37 1061 65H1011C983 65 961 43 961 15Z " transform="matrix(0.22310907965047277,-0.5011111974868862,0.5011111974868862,0.22310907965047277,765.3922725738965,537.6990574732231)" opacity="0.84"></path><path d="M597 333H647C675 333 697 355 697 383H647C619 383 597 361 597 333Z " transform="matrix(0.15761750192721224,-0.5155436188975513,0.5155436188975513,0.15761750192721224,360.45686068777025,635.1296557367737)" opacity="0.83"></path><path d="M1029 725H1079C1107 725 1129 747 1129 775H1079C1051 775 1029 753 1029 725Z " transform="matrix(0.19526424869198017,-0.5086807589931297,0.5086807589931297,0.19526424869198017,486.79930641650606,1152.4183524346017)" opacity="0.84"></path><path d="M992 296H1042C1070 296 1092 318 1092 346H1042C1014 346 992 324 992 296Z " transform="matrix(0.20476137998235752,-0.5068021996817119,0.5068021996817119,0.20476137998235752,665.9551359605539,783.359489094007)" opacity="0.84"></path><path d="M740 737H790C818 737 840 759 840 787H790C762 787 740 765 740 737Z " transform="matrix(0.23259406801903093,-0.49879958853628265,0.49879958853628265,0.23259406801903093,226.16539980031826,978.8149951131617)" opacity="0.85"></path><path d="M817 720H867C895 720 917 742 917 770H867C839 770 817 748 817 720Z " transform="matrix(0.24199078342617417,-0.4961546328854684,0.4961546328854684,0.24199078342617417,287.558789269833,994.8829330592014)" opacity="0.85"></path><path d="M186 12H236C264 12 286 34 286 62H236C208 62 186 40 186 12Z " transform="matrix(-0.30474641195458313,-0.32680051667238647,0.32680051667238647,-0.30474641195458313,295.82853410440333,125.40053917700278)" opacity="0.69"></path><path d="M227 422H277C305 422 327 444 327 472H277C249 472 227 450 227 422Z " transform="matrix(-0.2456526465197221,-0.393126412375827,0.393126412375827,-0.2456526465197221,169.31827675396835,665.7027492224199)" opacity="0.71"></path><path d="M475 731H525C553 731 575 753 575 781H525C497 781 475 759 475 731Z " transform="matrix(0.05450649060305667,-0.5185946167181422,0.5185946167181422,0.05450649060305667,104.32656219447972,987.055266881114)" opacity="0.80"></path><path d="M332 107H382C410 107 432 129 432 157H382C354 157 332 135 332 107Z " transform="matrix(-0.12679980640229857,-0.47322331988327593,0.47322331988327593,-0.12679980640229857,367.9720478210856,329.5088826405148)" opacity="0.75"></path><path d="M1111 578H1161C1189 578 1211 600 1211 628H1161C1133 628 1111 606 1111 578Z " transform="matrix(0.15753178989539776,-0.5152632674738552,0.5152632674738552,0.15753178989539776,667.4018416447084,1106.2289842302212)" opacity="0.83"></path><path d="M628 426H678C706 426 728 448 728 476H678C650 476 628 454 628 426Z " transform="matrix(0.17654920850498249,-0.5127361317852277,0.5127361317852277,0.17654920850498249,327.0556411984842,719.0114043146373)" opacity="0.83"></path><path d="M959 729H1009C1037 729 1059 751 1059 779H1009C981 779 959 757 959 729Z " transform="matrix(0.21417741833358905,-0.5045703776872098,0.5045703776872098,0.21417741833358905,412.4489201252526,1101.6217376628683)" opacity="0.84"></path><path d="M485 194H535C563 194 585 216 585 244H535C507 244 485 222 485 194Z " transform="matrix(0.08237989633697411,-0.520126195276344,0.520126195276344,0.08237989633697411,377.0191186941995,479.2263171750467)" opacity="0.81"></path><path d="M524 103H574C602 103 624 125 624 153H574C546 153 524 131 524 103Z " transform="matrix(0.12899551362556877,-0.5173727465610951,0.5173727465610951,0.12899551362556877,433.73286361910334,408.46053078199577)" opacity="0.82"></path><path d="M1029 541H1079C1107 541 1129 563 1129 591H1079C1051 591 1029 569 1029 541Z " transform="matrix(0.19526424869198017,-0.5086807589931297,0.5086807589931297,0.19526424869198017,580.396566071242,1004.346974193926)" opacity="0.84"></path><path d="M940 160H990C1018 160 1040 182 1040 210H990C962 210 940 188 940 160Z " transform="matrix(0.2234885216388594,-0.5019634381463659,0.5019634381463659,0.2234885216388594,675.8831275204516,640.5984272617131)" opacity="0.84"></path><path d="M531 664H581C609 664 631 686 631 714H581C553 714 531 692 531 664Z " transform="matrix(0.11045719414197055,-0.5196602413688238,0.5196602413688238,0.11045719414197055,158.77846390039548,914.8175934714691)" opacity="0.82"></path><path d="M524 15H574C602 15 624 37 624 65H574C546 65 524 43 524 15Z " transform="matrix(0.138411249900668,-0.5165578169684049,0.5165578169684049,0.138411249900668,473.8896298782804,330.9677369438377)" opacity="0.82"></path><path d="M622 523H672C700 523 722 545 722 573H672C644 573 622 551 622 523Z " transform="matrix(0.17654920850498249,-0.5127361317852277,0.5127361317852277,0.17654920850498249,272.379531666347,795.8097142989426)" opacity="0.83"></path><path d="M1335 646H1385C1413 646 1435 668 1435 696H1385C1357 696 1335 674 1335 646Z " transform="matrix(0.06376315406988177,-0.5193092160854343,0.5193092160854343,0.06376315406988177,948.2315476198872,1347.458187897436)" opacity="0.80"></path><path d="M-4 11H46C74 11 96 33 96 61H46C18 61 -4 39 -4 11Z " transform="matrix(-0.3827003747407065,-0.04698969746991479,0.04698969746991479,-0.3827003747407065,61.912588129155566,51.938739574281506)" opacity="0.59"></path><path d="M793 469H843C871 469 893 491 893 519H843C815 519 793 497 793 469Z " transform="matrix(0.24191500617151945,-0.49599926648914555,0.49599926648914555,0.24191500617151945,394.04201215177125,792.6213686016192)" opacity="0.85"></path><path d="M425 376H475C503 376 525 398 525 426H475C447 426 425 404 425 376Z " transform="matrix(0.018001091351281643,-0.5154838113041981,0.5154838113041981,0.018001091351281643,259.7404732751578,638.6363727376302)" opacity="0.79"></path><path d="M70 180H120C148 180 170 202 170 230H120C92 230 70 208 70 180Z " transform="matrix(-0.37066057309588984,-0.18886099511654558,0.18886099511654558,-0.37066057309588984,125.76276477261493,303.64873689864294)" opacity="0.64"></path><path d="M277 18H327C355 18 377 40 377 68H327C299 68 277 46 277 18Z " transform="matrix(-0.15721896349268025,-0.45659702395236007,0.45659702395236007,-0.15721896349268025,358.77692903215495,199.06764226260702)" opacity="0.74"></path><path d="M1333 476H1383C1411 476 1433 498 1433 526H1383C1355 526 1333 504 1333 476Z " transform="matrix(0.06376315406988177,-0.5193092160854343,0.5193092160854343,0.06376315406988177,1034.6416406625508,1187.259305657145)" opacity="0.80"></path><path d="M1048 632H1098C1126 632 1148 654 1148 682H1098C1070 682 1048 660 1048 632Z " transform="matrix(0.18570828732186107,-0.5102293260224053,0.5102293260224053,0.18570828732186107,558.8716333238763,1095.2214552021383)" opacity="0.83"></path><path d="M1256 179H1306C1334 179 1356 201 1356 229H1306C1278 229 1256 207 1256 179Z " transform="matrix(0.09160098723208888,-0.5194950135483808,0.5194950135483808,0.09160098723208888,1080.3921279110223,863.7738862988392)" opacity="0.81"></path><path d="M841 252H891C919 252 941 274 941 302H891C863 302 841 280 841 252Z " transform="matrix(0.24191337391432688,-0.49599591986595315,0.49599591986595315,0.24191337391432688,538.0643140394657,651.9223600262958)" opacity="0.85"></path><path d="M387 474H437C465 474 487 496 487 524H437C409 524 387 502 387 474Z " transform="matrix(-0.052582423920976916,-0.5002883450706067,0.5002883450706067,-0.052582423920976916,210.33463506323417,743.8646363324226)" opacity="0.77"></path><path d="M498 310H548C576 310 598 332 598 360H548C520 360 498 338 498 310Z " transform="matrix(0.08237989633697411,-0.520126195276344,0.520126195276344,0.08237989633697411,328.613541389763,592.4318897385501)" opacity="0.81"></path><path d="M1115 667H1165C1193 667 1215 689 1215 717H1165C1137 717 1115 695 1115 667Z " transform="matrix(0.15753178989539776,-0.5152632674738552,0.5152632674738552,0.15753178989539776,624.9132836799538,1183.2697079994261)" opacity="0.83"></path><path d="M767 557H817C845 557 867 579 867 607H817C789 607 767 585 767 557Z " transform="matrix(0.23299126607278034,-0.49965138251136115,0.49965138251136115,0.23299126607278034,335.84903099692633,854.614262657424)" opacity="0.85"></path><path d="M548 485H598C626 485 648 507 648 535H598C570 535 548 513 548 485Z " transform="matrix(0.1385799599173574,-0.5171874513224355,0.5171874513224355,0.1385799599173574,251.36358379497818,748.6023163329642)" opacity="0.82"></path><path d="M378 188H428C456 188 478 210 478 238H428C400 238 378 216 378 188Z " transform="matrix(-0.052582423920976916,-0.5002883450706067,0.5002883450706067,-0.052582423920976916,343.94385993813887,438.32346798538777)" opacity="0.77"></path><path d="M1239 345H1289C1317 345 1339 367 1339 395H1289C1261 395 1239 373 1239 345Z " transform="matrix(0.10108266363446065,-0.5200252231456423,0.5200252231456423,0.10108266363446065,966.2951140112925,1002.9119270899823)" opacity="0.81"></path><path d="M1088 257H1138C1166 257 1188 279 1188 307H1138C1110 307 1088 285 1088 257Z " transform="matrix(0.17611406888535652,-0.5114723945686023,0.5114723945686023,0.17611406888535652,793.3469743401184,814.3914175933987)" opacity="0.83"></path><path d="M70 393H120C148 393 170 415 170 443H120C92 443 70 421 70 393Z " transform="matrix(-0.37066057309588984,-0.18886099511654558,0.18886099511654558,-0.37066057309588984,85.53537281279073,595.5994389680675)" opacity="0.64"></path><path d="M1257 673H1307C1335 673 1357 695 1357 723H1307C1279 723 1257 701 1257 673Z " transform="matrix(0.09160098723208888,-0.5194950135483808,0.5194950135483808,0.09160098723208888,824.66999023089,1313.0424936197358)" opacity="0.81"></path><path d="M1085 154H1135C1163 154 1185 176 1185 204H1135C1107 204 1085 182 1085 154Z " transform="matrix(0.17611406888535652,-0.5114723945686023,0.5114723945686023,0.17611406888535652,843.5569731873405,727.9967495048847)" opacity="0.83"></path><path d="M444 21H494C522 21 544 43 544 71H494C466 71 444 49 444 21Z " transform="matrix(0.03620368545162826,-0.5177368229067135,0.5177368229067135,0.03620368545162826,452.29948553318684,300.09662098514156)" opacity="0.80"></path><path d="M1055 352H1105C1133 352 1155 374 1155 402H1105C1077 402 1055 380 1055 352Z " transform="matrix(0.18570828732186107,-0.5102293260224053,0.5102293260224053,0.18570828732186107,707.4358865988968,870.7913809344162)" opacity="0.83"></path><path d="M1190 429H1240C1268 429 1290 451 1290 479H1240C1212 479 1190 457 1190 429Z " transform="matrix(0.12926528967619708,-0.5184547592012797,0.5184547592012797,0.12926528967619708,844.3325801241346,1038.1974598965935)" opacity="0.82"></path><path d="M859 523H909C937 523 959 545 959 573H909C881 573 859 551 859 523Z " transform="matrix(0.24191337391432688,-0.49599591986595315,0.49599591986595315,0.24191337391432688,417.2949790253345,866.2917622531002)" opacity="0.85"></path><path d="M384 737H434C462 737 484 759 484 787H434C406 787 384 765 384 737Z " transform="matrix(-0.052582423920976916,-0.5002883450706067,0.5002883450706067,-0.052582423920976916,75.60105303790164,1019.1929487884277)" opacity="0.77"></path><path d="M8 480H58C86 480 108 502 108 530H58C30 530 8 508 8 480Z " transform="matrix(-0.3824745716676679,-0.04696197233874122,0.04696197233874122,-0.3824745716676679,56.46772912566042,700.8734530878193)" opacity="0.59"></path><path d="M1247 503H1297C1325 503 1347 525 1347 553H1297C1269 553 1247 531 1247 503Z " transform="matrix(0.10108266363446065,-0.5200252231456423,0.5200252231456423,0.10108266363446065,891.3224674452053,1149.1010680209026)" opacity="0.81"></path><path d="M171 587H221C249 587 271 609 271 637H221C193 637 171 615 171 587Z " transform="matrix(-0.30932177800521465,-0.32031207783999655,0.32031207783999655,-0.30932177800521465,93.32912130107452,872.0938973418306)" opacity="0.68"></path><path d="M1264 592H1314C1342 592 1364 614 1364 642H1314C1286 642 1264 620 1264 592Z " transform="matrix(0.09160098723208888,-0.5194950135483808,0.5194950135483808,0.09160098723208888,873.1078794176842,1243.0986386803734)" opacity="0.81"></path><path d="M904 85H954C982 85 1004 107 1004 135H954C926 135 904 113 904 85Z " transform="matrix(0.24176407258542912,-0.4956898067777612,0.4956898067777612,0.24176407258542912,668.8311960079468,556.294027681587)" opacity="0.85"></path><path d="M1169 177H1219C1247 177 1269 199 1269 227H1219C1191 227 1169 205 1169 177Z " transform="matrix(0.12926528967619708,-0.5184547592012797,0.5184547592012797,0.12926528967619708,956.6977505260572,807.8847629517682)" opacity="0.82"></path><path d="M149 670H199C227 670 249 692 249 720H199C171 720 149 698 149 670Z " transform="matrix(-0.333795045183967,-0.28008729930267023,0.28008729930267023,-0.333795045183967,70.76454097625361,982.7249289640886)" opacity="0.67"></path><path d="M-6 652H44C72 652 94 674 94 702H44C16 702 -6 680 -6 652Z " transform="matrix(-0.3824745716676679,-0.04696197233874122,0.04696197233874122,-0.3824745716676679,29.03562588004958,938.0016118019157)" opacity="0.59"></path><path d="M88 16H138C166 16 188 38 188 66H138C110 66 88 44 88 16Z " transform="matrix(-0.37146572988215376,-0.18927124298998022,0.18927124298998022,-0.37146572988215376,181.50214976114805,82.34952645778557)" opacity="0.64"></path><path d="M855 20H905C933 20 955 42 955 70H905C877 70 855 48 855 20Z " transform="matrix(0.2514411163851403,-0.4934809765334197,0.4934809765334197,0.2514411163851403,655.2391457274441,480.28543352541345)" opacity="0.85"></path><path d="M612 648H662C690 648 712 670 712 698H662C634 698 612 676 612 648Z " transform="matrix(0.17654920850498249,-0.5127361317852277,0.5127361317852277,0.17654920850498249,200.05300727824334,893.6137019179675)" opacity="0.83"></path><path d="M422 267H472C500 267 522 289 522 317H472C444 317 422 295 422 267Z " transform="matrix(-0.01778681151217826,-0.5093476395582058,0.5093476395582058,-0.01778681151217826,331.66586428275207,537.6058348330292)" opacity="0.78"></path><path d="M259 334H309C337 334 359 356 359 384H309C281 384 259 362 259 334Z " transform="matrix(-0.20701307687907958,-0.4244397067823267,0.4244397067823267,-0.20701307687907958,220.5931860207803,564.4695639953285)" opacity="0.73"></path><path d="M678 586H728C756 586 778 608 778 636H728C700 636 678 614 678 586Z " transform="matrix(0.21381660312463116,-0.5037203503235611,0.5037203503235611,0.21381660312463116,264.5683788775727,847.066470526403)" opacity="0.84"></path><path d="M1186 637H1236C1264 637 1286 659 1286 687H1236C1208 687 1186 665 1186 637Z " transform="matrix(0.12926528967619708,-0.5184547592012797,0.5184547592012797,0.12926528967619708,733.0110513689732,1217.2364606071392)" opacity="0.82"></path><path d="M-3 734H47C75 734 97 756 97 784H47C19 784 -3 762 -3 734Z " transform="matrix(-0.3824745716676679,-0.04696197233874122,0.04696197233874122,-0.3824745716676679,29.332167863275806,1051.5054125956808)" opacity="0.59"></path><path d="M954 481H1004C1032 481 1054 503 1054 531H1004C976 531 954 509 954 481Z " transform="matrix(0.2234885216388594,-0.5019634381463659,0.5019634381463659,0.2234885216388594,525.624024572524,896.8860999496885)" opacity="0.84"></path><path d="M1268 424H1318C1346 424 1368 446 1368 474H1318C1290 474 1268 452 1268 424Z " transform="matrix(0.09160098723208888,-0.5194950135483808,0.5194950135483808,0.09160098723208888,964.0166377448838,1092.565584589558)" opacity="0.81"></path><path d="M663 257H713C741 257 763 279 763 307H713C685 307 663 285 663 257Z " transform="matrix(0.21381660312463116,-0.5037203503235611,0.5037203503235611,0.21381660312463116,418.49962318089376,580.856327699553)" opacity="0.84"></path><path d="M1328 23H1378C1406 23 1428 45 1428 73H1378C1350 73 1328 51 1328 23Z " transform="matrix(0.02707467217542434,-0.5166155205547024,0.5166155205547024,0.02707467217542434,1315.8935567556396,758.5966030599595)" opacity="0.79"></path><path d="M270 574H320C348 574 370 596 370 624H320C292 624 270 602 270 574Z " transform="matrix(-0.20701307687907958,-0.4244397067823267,0.4244397067823267,-0.20701307687907958,132.0048002386918,858.8215392209131)" opacity="0.73"></path><path d="M89 731H139C167 731 189 753 189 781H139C111 781 89 759 89 731Z " transform="matrix(-0.37066057309588984,-0.18886099511654558,0.18886099511654558,-0.37066057309588984,47.74290735222024,1062.4710715816927)" opacity="0.64"></path><path d="M429 110H479C507 110 529 132 529 160H479C451 160 429 138 429 110Z " transform="matrix(0.027089612452167625,-0.5169005980173935,0.5169005980173935,0.027089612452167625,396.2424949030636,378.9382887692889)" opacity="0.80"></path><path d="M702 495H752C780 495 802 517 802 545H752C724 545 702 523 702 495Z " transform="matrix(0.22330242465132244,-0.501545457468845,0.501545457468845,0.22330242465132244,323.2729387784061,781.0449231978838)" opacity="0.84"></path><path d="M1038 451H1088C1116 451 1138 473 1138 501H1088C1060 501 1038 479 1038 451Z " transform="matrix(0.19526424869198017,-0.5086807589931297,0.5086807589931297,0.19526424869198017,633.4204561423959,936.4988834071424)" opacity="0.84"></path><path d="M762 208H812C840 208 862 230 862 258H812C784 258 762 236 762 208Z " transform="matrix(0.23299126607278034,-0.49965138251136115,0.49965138251136115,0.23299126607278034,506.39231982375526,584.4299576042674)" opacity="0.85"></path><path d="M294 733H344C372 733 394 755 394 783H344C316 783 294 761 294 733Z " transform="matrix(-0.17221061054136805,-0.4486239783455604,0.4486239783455604,-0.17221061054136805,63.18347444029581,1042.8622913412298)" opacity="0.74"></path><path d="M-5 563H45C73 563 95 585 95 613H45C17 613 -5 591 -5 563Z " transform="matrix(-0.3824745716676679,-0.04696197233874122,0.04696197233874122,-0.3824745716676679,34.59771598986522,815.0083368958319)" opacity="0.59"></path><path d="M772 107H822C850 107 872 129 872 157H822C794 157 772 135 772 107Z " transform="matrix(0.242332524093048,-0.49685530508758374,0.49685530508758374,0.242332524093048,557.2177649239535,508.4271676017115)" opacity="0.85"></path><path d="M324 647H374C402 647 424 669 424 697H374C346 697 324 675 324 647Z " transform="matrix(-0.1346388500190486,-0.46954147025856047,0.46954147025856047,-0.1346388500190486,108.82306189337152,938.0858170895024)" opacity="0.75"></path><path d="M809 374H859C887 374 909 396 909 424H859C831 424 809 402 809 374Z " transform="matrix(0.24199078342617417,-0.4961546328854684,0.4961546328854684,0.24199078342617417,453.1642185156145,728.6425070615738)" opacity="0.85"></path><path d="M885 739H935C963 739 985 761 985 789H935C907 789 885 767 885 739Z " transform="matrix(0.23300816326516213,-0.49968761865736105,0.49968761865736105,0.23300816326516213,335.37602669284956,1053.1896867100486)" opacity="0.85"></path><path d="M298 494H348C376 494 398 516 398 544H348C320 544 298 522 298 494Z " transform="matrix(-0.17221061054136805,-0.4486239783455604,0.4486239783455604,-0.17221061054136805,175.09344770705022,764.4984513352251)" opacity="0.74"></path><path d="M966 387H1016C1044 387 1066 409 1066 437H1016C988 437 966 415 966 387Z " transform="matrix(0.21417741833358905,-0.5045703776872098,0.5045703776872098,0.21417741833358905,590.5127473659431,836.4024073767664)" opacity="0.84"></path><path d="M1060 22H1110C1138 22 1160 44 1160 72H1110C1082 72 1060 50 1060 22Z " transform="matrix(0.1764260861170687,-0.512378558406963,0.512378558406963,0.1764260861170687,890.0852521649265,607.4481737842267)" opacity="0.83"></path><path d="M207 260H257C285 260 307 282 307 310H257C229 310 207 288 207 260Z " transform="matrix(-0.27986327949625656,-0.3582086627493466,0.3582086627493466,-0.27986327949625656,226.83539394697414,456.82066098301516)" opacity="0.70"></path><path d="M766 646H816C844 646 866 668 866 696H816C788 696 766 674 766 646Z " transform="matrix(0.23299126607278034,-0.49965138251136115,0.49965138251136115,0.23299126607278034,290.61304921948795,922.3783885944349)" opacity="0.85"></path><path d="M763 300H813C841 300 863 322 863 350H813C785 350 763 328 763 300Z " transform="matrix(0.23299126607278034,-0.49965138251136115,0.49965138251136115,0.23299126607278034,461.19140136663725,655.494412508083)" opacity="0.85"></path><path d="M1238 97H1288C1316 97 1338 119 1338 147H1288C1260 147 1238 125 1238 97Z " transform="matrix(0.09167931755766497,-0.5199392468997451,0.5199392468997451,0.09167931755766497,1106.4844508639585,780.4968732648366)" opacity="0.81"></path><path d="M1179 730H1229C1257 730 1279 752 1279 780H1229C1201 780 1179 758 1179 730Z " transform="matrix(0.12926528967619708,-0.5184547592012797,0.5184547592012797,0.12926528967619708,678.6996157909875,1294.585605352844)" opacity="0.82"></path><path d="M-13 405H37C65 405 87 427 87 455H37C9 455 -13 433 -13 405Z " transform="matrix(-0.3824745716676679,-0.04696197233874122,0.04696197233874122,-0.3824745716676679,30.957911046044988,596.2016587936306)" opacity="0.59"></path><path d="M1177 261H1227C1255 261 1277 283 1277 311H1227C1199 311 1177 289 1177 261Z " transform="matrix(0.12926528967619708,-0.5184547592012797,0.5184547592012797,0.12926528967619708,920.1134284357402,885.174116692578)" opacity="0.82"></path><path d="M1 244H51C79 244 101 266 101 294H51C23 294 1 272 1 244Z " transform="matrix(-0.3824745716676679,-0.04696197233874122,0.04696197233874122,-0.3824745716676679,57.87343259592967,374.28072036787853)" opacity="0.59"></path><path d="M200 507H250C278 507 300 529 300 557H250C222 557 200 535 200 507Z " transform="matrix(-0.27986327949625656,-0.3582086627493466,0.3582086627493466,-0.27986327949625656,129.39881129141173,770.4394303793451)" opacity="0.70"></path><path d="M1101 741H1151C1179 741 1201 763 1201 791H1151C1123 791 1101 769 1101 741Z " transform="matrix(0.17611406888535652,-0.5114723945686023,0.5114723945686023,0.17611406888535652,556.5048524734053,1219.8013493822782)" opacity="0.83"></path><path d="M1151 13H1201C1229 13 1251 35 1251 63H1201C1173 63 1151 41 1151 13Z " transform="matrix(0.12916916107862944,-0.5180692084549879,0.5180692084549879,0.12916916107862944,1026.1812076232766,655.2926912334526)" opacity="0.82"></path><path d="M925 243H975C1003 243 1025 265 1025 293H975C947 293 925 271 925 243Z " transform="matrix(0.2326693940516754,-0.4989611257345832,0.4989611257345832,0.2326693940516754,614.4257591027482,692.1316999853696)" opacity="0.85"></path><path d="M-6 323H44C72 323 94 345 94 373H44C16 373 -6 351 -6 323Z " transform="matrix(-0.3824745716676679,-0.04696197233874122,0.04696197233874122,-0.3824745716676679,44.486114779495445,483.167477723253)" opacity="0.59"></path><path d="M567 736H617C645 736 667 758 667 786H617C589 786 567 764 567 736Z " transform="matrix(0.1385799599173574,-0.5171874513224355,0.5171874513224355,0.1385799599173574,137.91651427461704,974.6453079688339)" opacity="0.82"></path><path d="M670 96H720C748 96 770 118 770 146H720C692 146 670 124 670 96Z " transform="matrix(0.22330755242971376,-0.5015569746476803,0.5015569746476803,0.22330755242971376,498.53016831823675,455.1008079023345)" opacity="0.84"></path><path d="M651 736H701C729 736 751 758 751 786H701C673 786 651 764 651 736Z " transform="matrix(0.1953046442981379,-0.5087859931449928,0.5087859931449928,0.1953046442981379,176.90530356366583,969.032146883757)" opacity="0.84"></path><path d="M977 635H1027C1055 635 1077 657 1077 685H1027C999 685 977 663 977 635Z " transform="matrix(0.21417741833358905,-0.5045703776872098,0.5045703776872098,0.21417741833358905,474.02334209784556,1036.8366817845956)" opacity="0.84"></path><path d="M324 407H374C402 407 424 429 424 457H374C346 457 324 435 324 407Z " transform="matrix(-0.1346388500190486,-0.46954147025856047,0.46954147025856047,-0.1346388500190486,221.51301475542604,665.7724930849306)" opacity="0.75"></path><path d="M1015 204H1065C1093 204 1115 226 1115 254H1065C1037 254 1015 232 1015 204Z " transform="matrix(0.20476137998235752,-0.5068021996817119,0.5068021996817119,0.20476137998235752,730.8714265916772,721.8539866450633)" opacity="0.84"></path><path d="M881 431H931C959 431 981 453 981 481H931C903 481 881 459 881 431Z " transform="matrix(0.23300816326516213,-0.49968761865736105,0.49968761865736105,0.23300816326516213,486.2118458923774,814.9574505210892)" opacity="0.85"></path><path d="M1255 743H1305C1333 743 1355 765 1355 793H1305C1277 793 1255 771 1255 743Z " transform="matrix(0.09160098723208888,-0.5194950135483808,0.5194950135483808,0.09160098723208888,786.4885412569676,1375.5914344863927)" opacity="0.81"></path><path d="M362 21H412C440 21 462 43 462 71H412C384 71 362 49 362 21Z " transform="matrix(-0.07801453367377477,-0.4925643801494621,0.4925643801494621,-0.07801453367377477,421.48402638671996,252.525193170572)" opacity="0.77"></path><path d="M847 156H897C925 156 947 178 947 206H897C869 206 847 184 847 156Z " transform="matrix(0.24191337391432688,-0.49599591986595315,0.49599591986595315,0.24191337391432688,590.2284421031113,582.1220194412668)" opacity="0.85"></path><path d="M594 159H644C672 159 694 181 694 209H644C616 209 594 187 594 159Z " transform="matrix(0.15761750192721224,-0.5155436188975513,0.5155436188975513,0.15761750192721224,447.6343028817259,487.00847021541597)" opacity="0.83"></path><path d="M354 325H404C432 325 454 347 454 375H404C376 375 354 353 354 325Z " transform="matrix(-0.09463602838235291,-0.48686015986991216,0.48686015986991216,-0.09463602838235291,271.8318995120013,579.814114521268)" opacity="0.76"></path><path d="M1190 553H1240C1268 553 1290 575 1290 603H1240C1212 603 1190 581 1190 553Z " transform="matrix(0.12926528967619708,-0.5184547592012797,0.5184547592012797,0.12926528967619708,780.0441899831759,1146.168563976745)" opacity="0.82"></path><path d="M1330 117H1380C1408 117 1430 139 1430 167H1380C1352 167 1330 145 1330 117Z " transform="matrix(0.0453862826014925,-0.5187675839629682,0.5187675839629682,0.0453862826014925,1243.701933087199,851.4544137394842)" opacity="0.80"></path><path d="M600 33H650C678 33 700 55 700 83H650C622 83 600 61 600 33Z " transform="matrix(0.1856050563707583,-0.5099457013152617,0.5099457013152617,0.1856050563707583,499.77986268272196,378.69961258541616)" opacity="0.83"></path><path d="M1146 339H1196C1224 339 1246 361 1246 389H1196C1168 389 1146 367 1146 339Z " transform="matrix(0.14790463781048285,-0.5158047702113358,0.5158047702113358,0.14790463781048285,831.3531168217362,927.0652170097417)" opacity="0.82"></path><path d="M686 343H736C764 343 786 365 786 393H736C708 393 686 371 686 343Z " transform="matrix(0.21381660312463116,-0.5037203503235611,0.5037203503235611,0.21381660312463116,393.26189118120095,660.0536678882768)" opacity="0.84"></path><path d="M1333 557H1383C1411 557 1433 579 1433 607H1383C1355 607 1333 585 1333 557Z " transform="matrix(0.06376315406988177,-0.5193092160854343,0.5193092160854343,0.06376315406988177,992.5775941596307,1263.0944901774847)" opacity="0.80"></path><path d="M92 531H142C170 531 192 553 192 581H142C114 581 92 559 92 531Z " transform="matrix(-0.37066057309588984,-0.18886099511654558,0.18886099511654558,-0.37066057309588984,89.62708809481703,788.9055399478642)" opacity="0.64"></path><path d="M932 565H982C1010 565 1032 587 1032 615H982C954 615 932 593 932 565Z " transform="matrix(0.2234885216388594,-0.5019634381463659,0.5019634381463659,0.2234885216388594,466.3758432442843,951.0698684928042)" opacity="0.84"></path><path d="M899 658H949C977 658 999 680 999 708H949C921 708 899 686 899 658Z " transform="matrix(0.2326693940516754,-0.4989611257345832,0.4989611257345832,0.2326693940516754,387.4062961682397,997.6009121848251)" opacity="0.85"></path><path d="M196 739H246C274 739 296 761 296 789H246C218 789 196 767 196 739Z " transform="matrix(-0.27986327949625656,-0.3582086627493466,0.3582086627493466,-0.27986327949625656,41.17494841557834,1065.9348765714794)" opacity="0.70"></path><path d="M373 567H423C451 567 473 589 473 617H423C395 617 373 595 373 567Z " transform="matrix(-0.052582423920976916,-0.5002883450706067,0.5002883450706067,-0.052582423920976916,149.07166503677405,834.7507649260851)" opacity="0.77"></path><path d="M-6 85H44C72 85 94 107 94 135H44C16 135 -6 113 -6 85Z " transform="matrix(-0.38264843756708194,-0.046983320386856764,0.046983320386856764,-0.38264843756708194,55.668366010397364,154.15859422940073)" opacity="0.59"></path><path d="M121 240H171C199 240 221 262 221 290H171C143 290 121 268 121 240Z " transform="matrix(-0.357244414480097,-0.23199723539077366,0.23199723539077366,-0.357244414480097,170.60952749754156,399.341297089048)" opacity="0.65"></path><path d="M172 168H222C250 168 272 190 272 218H222C194 218 172 196 172 168Z " transform="matrix(-0.30932177800521465,-0.32031207783999655,0.32031207783999655,-0.30932177800521465,228.84920369403832,323.80838443548566)" opacity="0.68"></path><path d="M1240 15H1290C1318 15 1340 37 1340 65H1290C1262 65 1240 43 1240 15Z " transform="matrix(0.07313045861991076,-0.5203502510481842,0.5203502510481842,0.07313045861991076,1174.8476983383878,708.3266055073611)" opacity="0.81"></path><path d="M840 611H890C918 611 940 633 940 661H890C862 661 840 639 840 611Z " transform="matrix(0.24191337391432688,-0.49599591986595315,0.49599591986595315,0.24191337391432688,359.24369218150287,923.5794628711865)" opacity="0.85"></path><path d="M564 246H614C642 246 664 268 664 296H614C586 296 564 274 564 246Z " transform="matrix(0.1385799599173574,-0.5171874513224355,0.5171874513224355,0.1385799599173574,388.7541053023625,550.9979259743716)" opacity="0.82"></path><path d="M163 350H213C241 350 263 372 263 400H213C185 400 163 378 163 350Z " transform="matrix(-0.30932177800521465,-0.32031207783999655,0.32031207783999655,-0.30932177800521465,158.76850952511202,559.2221393318748)" opacity="0.68"></path><path d="M465 620H515C543 620 565 642 565 670H515C487 670 465 648 465 620Z " transform="matrix(0.05450649060305667,-0.5185946167181422,0.5185946167181422,0.05450649060305667,152.43562955622406,876.9195411708718)" opacity="0.80"></path><path d="M1334 386H1384C1412 386 1434 408 1434 436H1384C1356 436 1334 414 1334 386Z " transform="matrix(0.06376315406988177,-0.5193092160854343,0.5193092160854343,0.06376315406988177,1082.31570695617,1103.51729873952)" opacity="0.80"></path><path d="M767 20H817C845 20 867 42 867 70H817C789 70 767 48 767 20Z " transform="matrix(0.251589416565853,-0.4937720320260548,0.4937720320260548,0.251589416565853,589.2317052245256,437.09022641982335)" opacity="0.85"></path><path d="M1331 305H1381C1409 305 1431 327 1431 355H1381C1353 355 1331 333 1331 305Z " transform="matrix(0.06376315406988177,-0.5193092160854343,0.5193092160854343,0.06376315406988177,1121.5710429213,1026.124186570924)" opacity="0.80"></path><path d="M686 175H736C764 175 786 197 786 225H736C708 225 686 203 686 175Z " transform="matrix(0.21381660312463116,-0.5037203503235611,0.5037203503235611,0.21381660312463116,477.88691003555925,527.9748572132148)" opacity="0.84"></path><path d="M1334 732H1384C1412 732 1434 754 1434 782H1384C1356 782 1334 760 1334 732Z " transform="matrix(0.06376315406988177,-0.5193092160854343,0.5193092160854343,0.06376315406988177,902.6347181906099,1427.4552474313407)" opacity="0.80"></path><path d="M1141 90H1191C1219 90 1241 112 1241 140H1191C1163 140 1141 118 1141 90Z " transform="matrix(0.1384653558952514,-0.5167597432891843,0.5167597432891843,0.1384653558952514,966.6603906504994,714.5373383294645)" opacity="0.82"></path><path d="M1012 100H1062C1090 100 1112 122 1112 150H1062C1034 150 1012 128 1012 100Z " transform="matrix(0.2047834190533657,-0.5068567482966257,0.5068567482966257,0.2047834190533657,781.1629154282473,637.6839393093458)" opacity="0.84"></path><path d="M692 668H742C770 668 792 690 792 718H742C714 718 692 696 692 668Z " transform="matrix(0.22330242465132244,-0.501545457468845,0.501545457468845,0.22330242465132244,228.73859888280913,910.3981491585165)" opacity="0.84"></path><path d="M1335 213H1385C1413 213 1435 235 1435 263H1385C1357 263 1335 241 1335 213Z " transform="matrix(0.06376315406988177,-0.5193092160854343,0.5193092160854343,0.06376315406988177,1173.0924381848804,942.0676336096948)" opacity="0.80"></path><path d="M466 538H516C544 538 566 560 566 588H516C488 588 466 566 466 538Z " transform="matrix(0.05450649060305667,-0.5185946167181422,0.5185946167181422,0.05450649060305667,195.9058816365087,799.9076680170405)" opacity="0.80"></path><path d="M268 181H318C346 181 368 203 368 231H318C290 231 268 209 268 181Z " transform="matrix(-0.20701307687907958,-0.4244397067823267,0.4244397067823267,-0.20701307687907958,296.395578850388,383.6165205938703)" opacity="0.73"></path><path d="M155 85H205C233 85 255 107 255 135H205C177 135 155 113 155 85Z " transform="matrix(-0.3345871107188344,-0.2807519212008457,0.2807519212008457,-0.3345871107188344,242.70764636526803,204.35872602524512)" opacity="0.67"></path><path d="M1258 263H1308C1336 263 1358 285 1358 313H1308C1280 313 1258 291 1258 263Z " transform="matrix(0.09160098723208888,-0.5194950135483808,0.5194950135483808,0.09160098723208888,1038.571344798494,941.1183933984405)" opacity="0.81"></path><path d="M890 332H940C968 332 990 354 990 382H940C912 382 890 360 890 332Z " transform="matrix(0.23300816326516213,-0.49968761865736105,0.49968761865736105,0.23300816326516213,542.5838466700698,743.5224472522566)" opacity="0.85"></path><path d="M468 452H518C546 452 568 474 568 502H518C490 502 468 480 468 452Z " transform="matrix(0.05450649060305667,-0.5185946167181422,0.5185946167181422,0.05450649060305667,242.39600569306282,719.6324154423396)" opacity="0.80"></path><path d="M237 659H287C315 659 337 681 337 709H287C259 709 237 687 237 659Z " transform="matrix(-0.2456526465197221,-0.393126412375827,0.393126412375827,-0.2456526465197221,88.60384348609458,964.8536905713522)" opacity="0.71"></path><path d="M76 625H126C154 625 176 647 176 675H126C98 675 76 653 76 625Z " transform="matrix(-0.37066057309588984,-0.18886099511654558,0.18886099511654558,-0.37066057309588984,49.94358538432749,914.7258578970132)" opacity="0.64"></path><path d="M1127 496H1177C1205 496 1227 518 1227 546H1177C1149 546 1127 524 1127 496Z " transform="matrix(0.15753178989539776,-0.5152632674738552,0.5152632674738552,0.15753178989539776,723.1329209392384,1045.3908032812255)" opacity="0.83"></path><path d="M726 412H776C804 412 826 434 826 462H776C748 462 726 440 726 412Z " transform="matrix(0.23259406801903093,-0.49879958853628265,0.49879958853628265,0.23259406801903093,377.5315830268765,722.4248729798388)" opacity="0.85"></path><path d="M77 102H127C155 102 177 124 177 152H127C99 152 77 130 77 102Z " transform="matrix(-0.37111905034629744,-0.18909460094364247,0.18909460094364247,-0.37111905034629744,150.11710507413719,198.14713371382237)" opacity="0.64"></path><path d="M240 97H290C318 97 340 119 340 147H290C262 147 240 125 240 97Z " transform="matrix(-0.23933257840963873,-0.398316299705208,0.398316299705208,-0.23933257840963873,310.81185917475983,266.71030148048624)" opacity="0.71"></path><path d="M682 14H732C760 14 782 36 782 64H732C704 64 682 42 682 14Z " transform="matrix(0.23270139808573895,-0.49902975860711674,0.49902975860711674,0.23270139808573895,542.2004160155616,395.2144287750656)" opacity="0.85"></path></g></svg>