<svg xmlns="http://www.w3.org/2000/svg" version="1.1" xmlns:xlink="http://www.w3.org/1999/xlink" xmlns:svgjs="http://svgjs.dev/svgjs" viewBox="0 0 800 800"><defs><linearGradient x1="50%" y1="0%" x2="50%" y2="100%" id="ffflurry-grad" gradientTransform="rotate(270)"><stop stop-color="hsl(0, 0%, 100%)" stop-opacity="1" offset="0%"></stop><stop stop-color="hsl(0, 0%, 0%)" stop-opacity="1" offset="45%"></stop><stop stop-color="hsl(0, 0%, 23%)" stop-opacity="1" offset="100%"></stop></linearGradient></defs><rect width="100%" height="100%" fill="hsl(0, 0%, 100%)"></rect><g fill="url(#ffflurry-grad)"><rect width="811" height="4" x="-250.5" y="387" rx="2" transform="rotate(26, 155, 389)" opacity="0.42"></rect><rect width="1025" height="4" x="38.5" y="155" rx="2" transform="rotate(26, 551, 157)" opacity="0.54"></rect><rect width="301" height="4" x="284.5" y="584" rx="2" transform="rotate(26, 435, 586)" opacity="0.15"></rect><rect width="633" height="4" x="394.5" y="628" rx="2" transform="rotate(26, 711, 630)" opacity="0.89"></rect><rect width="113" height="4" x="154.5" y="129" rx="2" transform="rotate(26, 211, 131)" opacity="0.13"></rect><rect width="561" height="4" x="79.5" y="114" rx="2" transform="rotate(26, 360, 116)" opacity="0.41"></rect><rect width="144" height="4" x="-14" y="32" rx="2" transform="rotate(26, 58, 34)" opacity="0.70"></rect><rect width="1372" height="4" x="-639" y="302" rx="2" transform="rotate(26, 47, 304)" opacity="0.88"></rect><rect width="332" height="4" x="-121" y="595" rx="2" transform="rotate(26, 45, 597)" opacity="0.65"></rect><rect width="620" height="4" x="216" y="413" rx="2" transform="rotate(26, 526, 415)" opacity="0.81"></rect><rect width="1015" height="4" x="143.5" y="162" rx="2" transform="rotate(26, 651, 164)" opacity="0.14"></rect><rect width="414" height="4" x="551" y="47" rx="2" transform="rotate(26, 758, 49)" opacity="0.82"></rect><rect width="408" height="4" x="464" y="587" rx="2" transform="rotate(26, 668, 589)" opacity="0.89"></rect><rect width="680" height="4" x="391" y="492" rx="2" transform="rotate(26, 731, 494)" opacity="0.47"></rect><rect width="645" height="4" x="-70.5" y="451" rx="2" transform="rotate(26, 252, 453)" opacity="0.49"></rect><rect width="787" height="4" x="155.5" y="517" rx="2" transform="rotate(26, 549, 519)" opacity="0.72"></rect><rect width="765" height="4" x="229.5" y="599" rx="2" transform="rotate(26, 612, 601)" opacity="0.80"></rect><rect width="364" height="4" x="520" y="230" rx="2" transform="rotate(26, 702, 232)" opacity="0.21"></rect><rect width="1444" height="4" x="-611" y="157" rx="2" transform="rotate(26, 111, 159)" opacity="0.85"></rect><rect width="159" height="4" x="127.5" y="432" rx="2" transform="rotate(26, 207, 434)" opacity="0.23"></rect><rect width="656" height="4" x="433" y="153" rx="2" transform="rotate(26, 761, 155)" opacity="0.34"></rect><rect width="637" height="4" x="298.5" y="509" rx="2" transform="rotate(26, 617, 511)" opacity="0.89"></rect><rect width="318" height="4" x="-137" y="487" rx="2" transform="rotate(26, 22, 489)" opacity="0.33"></rect><rect width="198" height="4" x="52" y="735" rx="2" transform="rotate(26, 151, 737)" opacity="0.51"></rect><rect width="932" height="4" x="204" y="449" rx="2" transform="rotate(26, 670, 451)" opacity="0.41"></rect><rect width="464" height="4" x="-189" y="213" rx="2" transform="rotate(26, 43, 215)" opacity="0.95"></rect><rect width="180" height="4" x="514" y="238" rx="2" transform="rotate(26, 604, 240)" opacity="0.71"></rect><rect width="545" height="4" x="-125.5" y="54" rx="2" transform="rotate(26, 147, 56)" opacity="0.35"></rect><rect width="1208" height="4" x="-284" y="384" rx="2" transform="rotate(26, 320, 386)" opacity="0.73"></rect><rect width="546" height="4" x="12" y="619" rx="2" transform="rotate(26, 285, 621)" opacity="0.31"></rect><rect width="252" height="4" x="-45" y="506" rx="2" transform="rotate(26, 81, 508)" opacity="1.00"></rect><rect width="269" height="4" x="-101.5" y="405" rx="2" transform="rotate(26, 33, 407)" opacity="0.96"></rect><rect width="585" height="4" x="-203.5" y="378" rx="2" transform="rotate(26, 89, 380)" opacity="0.76"></rect><rect width="626" height="4" x="-51" y="340" rx="2" transform="rotate(26, 262, 342)" opacity="0.52"></rect><rect width="632" height="4" x="161" y="178" rx="2" transform="rotate(26, 477, 180)" opacity="0.40"></rect><rect width="1188" height="4" x="-189" y="654" rx="2" transform="rotate(26, 405, 656)" opacity="0.23"></rect><rect width="1041" height="4" x="-446.5" y="689" rx="2" transform="rotate(26, 74, 691)" opacity="0.24"></rect><rect width="391" height="4" x="47.5" y="275" rx="2" transform="rotate(26, 243, 277)" opacity="0.79"></rect><rect width="294" height="4" x="329" y="490" rx="2" transform="rotate(26, 476, 492)" opacity="0.28"></rect><rect width="477" height="4" x="182.5" y="146" rx="2" transform="rotate(26, 421, 148)" opacity="0.28"></rect><rect width="816" height="4" x="353" y="403" rx="2" transform="rotate(26, 761, 405)" opacity="0.84"></rect><rect width="254" height="4" x="135" y="750" rx="2" transform="rotate(26, 262, 752)" opacity="0.70"></rect><rect width="383" height="4" x="371.5" y="617" rx="2" transform="rotate(26, 563, 619)" opacity="0.47"></rect><rect width="943" height="4" x="-212.5" y="182" rx="2" transform="rotate(26, 259, 184)" opacity="0.08"></rect><rect width="161" height="4" x="224.5" y="222" rx="2" transform="rotate(26, 305, 224)" opacity="0.93"></rect><rect width="162" height="4" x="189" y="539" rx="2" transform="rotate(26, 270, 541)" opacity="0.14"></rect><rect width="1004" height="4" x="-73" y="256" rx="2" transform="rotate(26, 429, 258)" opacity="0.18"></rect><rect width="657" height="4" x="-12.5" y="283" rx="2" transform="rotate(26, 316, 285)" opacity="0.09"></rect><rect width="1097" height="4" x="-382.5" y="236" rx="2" transform="rotate(26, 166, 238)" opacity="0.83"></rect><rect width="1249" height="4" x="-294.5" y="48" rx="2" transform="rotate(26, 330, 50)" opacity="0.69"></rect><rect width="1571" height="4" x="-203.5" y="55" rx="2" transform="rotate(26, 582, 57)" opacity="0.91"></rect><rect width="1102" height="4" x="-379" y="555" rx="2" transform="rotate(26, 172, 557)" opacity="0.31"></rect><rect width="968" height="4" x="40" y="688" rx="2" transform="rotate(26, 524, 690)" opacity="0.09"></rect><rect width="1021" height="4" x="101.5" y="730" rx="2" transform="rotate(26, 612, 732)" opacity="0.92"></rect><rect width="564" height="4" x="93" y="314" rx="2" transform="rotate(26, 375, 316)" opacity="0.85"></rect><rect width="287" height="4" x="-7.5" y="456" rx="2" transform="rotate(26, 136, 458)" opacity="0.85"></rect><rect width="427" height="4" x="-5.5" y="354" rx="2" transform="rotate(26, 208, 356)" opacity="0.35"></rect><rect width="574" height="4" x="171" y="756" rx="2" transform="rotate(26, 458, 758)" opacity="0.37"></rect><rect width="188" height="4" x="605" y="346" rx="2" transform="rotate(26, 699, 348)" opacity="0.30"></rect><rect width="211" height="4" x="618.5" y="757" rx="2" transform="rotate(26, 724, 759)" opacity="0.51"></rect><rect width="877" height="4" x="325.5" y="555" rx="2" transform="rotate(26, 764, 557)" opacity="0.73"></rect><rect width="941" height="4" x="209.5" y="101" rx="2" transform="rotate(26, 680, 103)" opacity="0.41"></rect><rect width="982" height="4" x="-175" y="465" rx="2" transform="rotate(26, 316, 467)" opacity="0.13"></rect><rect width="657" height="4" x="100.5" y="385" rx="2" transform="rotate(26, 429, 387)" opacity="0.77"></rect><rect width="663" height="4" x="303.5" y="316" rx="2" transform="rotate(26, 635, 318)" opacity="0.57"></rect><rect width="1529" height="4" x="-297.5" y="48" rx="2" transform="rotate(26, 467, 50)" opacity="0.87"></rect><rect width="142" height="4" x="270" y="719" rx="2" transform="rotate(26, 341, 721)" opacity="0.31"></rect><rect width="1129" height="4" x="-64.5" y="284" rx="2" transform="rotate(26, 500, 286)" opacity="0.20"></rect><rect width="210" height="4" x="565" y="28" rx="2" transform="rotate(26, 670, 30)" opacity="0.57"></rect><rect width="1257" height="4" x="-242.5" y="497" rx="2" transform="rotate(26, 386, 499)" opacity="0.73"></rect><rect width="705" height="4" x="-114.5" y="39" rx="2" transform="rotate(26, 238, 41)" opacity="0.07"></rect><rect width="714" height="4" x="-321" y="105" rx="2" transform="rotate(26, 36, 107)" opacity="0.19"></rect><rect width="295" height="4" x="411.5" y="320" rx="2" transform="rotate(26, 559, 322)" opacity="0.44"></rect><rect width="314" height="4" x="453" y="402" rx="2" transform="rotate(26, 610, 404)" opacity="0.94"></rect><rect width="726" height="4" x="402" y="280" rx="2" transform="rotate(26, 765, 282)" opacity="0.22"></rect><rect width="380" height="4" x="169" y="202" rx="2" transform="rotate(26, 359, 204)" opacity="0.90"></rect><rect width="523" height="4" x="-123.5" y="308" rx="2" transform="rotate(26, 138, 310)" opacity="0.69"></rect><rect width="659" height="4" x="177.5" y="586" rx="2" transform="rotate(26, 507, 588)" opacity="0.46"></rect><rect width="132" height="4" x="691" y="676" rx="2" transform="rotate(26, 757, 678)" opacity="0.81"></rect></g></svg>