<svg version="1.1"
      xmlns="http://www.w3.org/2000/svg"
      xmlns:xlink="http://www.w3.org/1999/xlink"  id="snapshot-76313" width="250" height="250" viewBox="0 0 250 250"><desc>This image was made on Patterninja.com</desc><defs>
<!-- image 46531 -->
<g id="transformed-46531" data-image="46531" transform="translate(143.64902846712576, 17.649028467125802) rotate(354, 91.35097153287424, 91.3509715328742)"><g><svg version="1.1" width="182.70194306574848px" height="182.7019430657484px" viewBox="0 0 182.70194306574848 182.7019430657484"><g id="original-46531"><svg xmlns="http://www.w3.org/2000/svg" viewBox="0 0 2000 2000" xmlns:xlink="http://www.w3.org/1999/xlink" version="1.1" preserveAspectRatio="xMidYMid meet">
  <path d="M500 500c500 500 500 500 1000 0-500 500-500 500 0 1000-500-500-500-500-1000 0 500-500 500-500 0-1000" fill="rgba(NaN, NaN, 0, 1)" stroke="none"/>
</svg>
</g></svg></g></g>
<!-- /image 46531 -->

<!-- image 57056 -->
<g id="transformed-57056" data-image="57056" transform="translate(144.64902846712576, 151.6490284671258) rotate(354, 91.35097153287424, 91.3509715328742)"><g><svg version="1.1" width="182.70194306574848px" height="182.7019430657484px" viewBox="0 0 182.70194306574848 182.7019430657484"><g id="original-57056"><svg xmlns="http://www.w3.org/2000/svg" viewBox="0 0 2000 2000" xmlns:xlink="http://www.w3.org/1999/xlink" version="1.1" preserveAspectRatio="xMidYMid meet">
  <path d="M500 500c500 500 500 500 1000 0-500 500-500 500 0 1000-500-500-500-500-1000 0 500-500 500-500 0-1000" fill="rgba(NaN, NaN, 0, 1)" stroke="none"/>
</svg>
</g></svg></g></g>
<!-- /image 57056 -->

<!-- image 62580 -->
<g id="transformed-62580" data-image="62580" transform="translate(27.64902846712576, 103.6490284671258) rotate(354, 91.35097153287424, 91.3509715328742)"><g><svg version="1.1" width="182.70194306574848px" height="182.7019430657484px" viewBox="0 0 182.70194306574848 182.7019430657484"><g id="original-62580"><svg xmlns="http://www.w3.org/2000/svg" viewBox="0 0 2000 2000" xmlns:xlink="http://www.w3.org/1999/xlink" version="1.1" preserveAspectRatio="xMidYMid meet">
  <path d="M500 500c500 500 500 500 1000 0-500 500-500 500 0 1000-500-500-500-500-1000 0 500-500 500-500 0-1000" fill="rgba(NaN, NaN, 0, 1)" stroke="none"/>
</svg>
</g></svg></g></g>
<!-- /image 62580 -->

<!-- image 18636 -->
<g id="transformed-18636" data-image="18636" transform="translate(68.52184929506501, 21.521849295064996) rotate(29, 51.47815070493499, 51.478150704935004)"><g><svg version="1.1" width="102.95630140986998px" height="102.95630140987001px" viewBox="0 0 102.95630140986998 102.95630140987001"><g id="original-18636"><svg xmlns="http://www.w3.org/2000/svg" viewBox="0 0 800 800" xmlns:xlink="http://www.w3.org/1999/xlink" version="1.1" preserveAspectRatio="xMidYMid meet">
  <path d="M398.6 243.4C623.4 19.6 833.6 351 400 700c-433.6-349-223.4-680.4-1.4-456.6z" stroke-linecap="round" stroke-linejoin="round" stroke-width="10" fill="rgba(NaN, NaN, 0, 1)" stroke="rgba(NaN, NaN, 0, 1)"/>
</svg>
</g></svg></g></g>
<!-- /image 18636 -->
</defs><rect x="0" y="0" width="250" height="250" fill="rgba(255, 254, 254, 1)"></rect><use xlink:href="#transformed-46531" transform="translate(-250, -250)"></use><use xlink:href="#transformed-46531" transform="translate(0, -250)"></use><use xlink:href="#transformed-46531" transform="translate(250, -250)"></use><use xlink:href="#transformed-46531" transform="translate(-250, 0)"></use><use xlink:href="#transformed-46531" transform="translate(0, 0)"></use><use xlink:href="#transformed-46531" transform="translate(250, 0)"></use><use xlink:href="#transformed-46531" transform="translate(-250, 250)"></use><use xlink:href="#transformed-46531" transform="translate(0, 250)"></use><use xlink:href="#transformed-46531" transform="translate(250, 250)"></use><use xlink:href="#transformed-57056" transform="translate(-250, -250)"></use><use xlink:href="#transformed-57056" transform="translate(0, -250)"></use><use xlink:href="#transformed-57056" transform="translate(250, -250)"></use><use xlink:href="#transformed-57056" transform="translate(-250, 0)"></use><use xlink:href="#transformed-57056" transform="translate(0, 0)"></use><use xlink:href="#transformed-57056" transform="translate(250, 0)"></use><use xlink:href="#transformed-57056" transform="translate(-250, 250)"></use><use xlink:href="#transformed-57056" transform="translate(0, 250)"></use><use xlink:href="#transformed-57056" transform="translate(250, 250)"></use><use xlink:href="#transformed-62580" transform="translate(-250, -250)"></use><use xlink:href="#transformed-62580" transform="translate(0, -250)"></use><use xlink:href="#transformed-62580" transform="translate(250, -250)"></use><use xlink:href="#transformed-62580" transform="translate(-250, 0)"></use><use xlink:href="#transformed-62580" transform="translate(0, 0)"></use><use xlink:href="#transformed-62580" transform="translate(250, 0)"></use><use xlink:href="#transformed-62580" transform="translate(-250, 250)"></use><use xlink:href="#transformed-62580" transform="translate(0, 250)"></use><use xlink:href="#transformed-62580" transform="translate(250, 250)"></use><use xlink:href="#transformed-18636" transform="translate(-250, -250)"></use><use xlink:href="#transformed-18636" transform="translate(0, -250)"></use><use xlink:href="#transformed-18636" transform="translate(250, -250)"></use><use xlink:href="#transformed-18636" transform="translate(-250, 0)"></use><use xlink:href="#transformed-18636" transform="translate(0, 0)"></use><use xlink:href="#transformed-18636" transform="translate(250, 0)"></use><use xlink:href="#transformed-18636" transform="translate(-250, 250)"></use><use xlink:href="#transformed-18636" transform="translate(0, 250)"></use><use xlink:href="#transformed-18636" transform="translate(250, 250)"></use></svg>