<?xml version="1.0" encoding="UTF-8"?>
<!DOCTYPE svg PUBLIC "-//W3C//DTD SVG 1.1//EN" "http://www.w3.org/Graphics/SVG/1.1/DTD/svg11.dtd">
<svg xmlns="http://www.w3.org/2000/svg" version="1.1" width="200px" height="200px" style="shape-rendering:geometricPrecision; text-rendering:geometricPrecision; image-rendering:optimizeQuality; fill-rule:evenodd; clip-rule:evenodd" xmlns:xlink="http://www.w3.org/1999/xlink">
<g><path style="opacity:0.064" fill="#f9dfde" d="M 98.5,56.5 C 100.984,57.9641 100.984,59.6308 98.5,61.5C 97.675,62.3857 96.675,62.719 95.5,62.5C 95.461,59.911 96.461,57.911 98.5,56.5 Z"/></g>
<g><path style="opacity:0.337" fill="#f4dedc" d="M 118.5,70.5 C 113.121,77.0651 111.621,84.0651 114,91.5C 114.89,88.3663 116.724,86.033 119.5,84.5C 119.5,87.8333 119.5,91.1667 119.5,94.5C 118.764,100.233 117.264,105.9 115,111.5C 114.517,110.552 114.351,109.552 114.5,108.5C 112.089,108.137 110.589,109.137 110,111.5C 107.509,107.227 106.343,102.56 106.5,97.5C 106.664,88.6641 108.331,80.1641 111.5,72C 109.591,71.5521 108.424,72.3855 108,74.5C 106.648,77.7201 105.814,81.0534 105.5,84.5C 104.361,80.6993 103.528,76.6993 103,72.5C 101.604,70.4732 99.9376,70.1398 98,71.5C 95.8569,76.7949 95.5236,82.1282 97,87.5C 97.3333,87.1667 97.6667,86.8333 98,86.5C 98.3333,82.8333 98.6667,79.1667 99,75.5C 99.0006,78.687 99.8339,81.5203 101.5,84C 100.568,87.0854 99.9014,90.2521 99.5,93.5C 98.037,96.2026 97.2037,99.2026 97,102.5C 96.7216,101.584 96.2216,100.918 95.5,100.5C 93.6565,102.279 92.9898,104.612 93.5,107.5C 92.6981,108.952 92.1981,110.618 92,112.5C 91.6667,108.833 91.3333,105.167 91,101.5C 90.6667,103.167 90.3333,104.833 90,106.5C 88.5886,104.35 87.7553,102.016 87.5,99.5C 89.2018,91.9471 89.8685,84.2805 89.5,76.5C 87.5328,76.2606 85.6995,76.5939 84,77.5C 82.7578,81.5927 81.5911,85.5927 80.5,89.5C 80.5,88.5 80.5,87.5 80.5,86.5C 81.4654,80.5167 81.9654,74.5167 82,68.5C 81.6667,68.1667 81.3333,67.8333 81,67.5C 80.95,72.1271 80.1167,76.4604 78.5,80.5C 78.1699,78.0929 77.5033,75.4262 76.5,72.5C 76.8333,71.1667 77.1667,69.8333 77.5,68.5C 76.5,65.8333 75.5,63.1667 74.5,60.5C 75.7241,57.231 77.3907,56.8976 79.5,59.5C 81.9956,57.0466 84.6623,56.8799 87.5,59C 91.1382,62.7769 93.3049,67.2769 94,72.5C 96.8879,67.2245 100.388,62.3911 104.5,58C 108.519,55.6924 109.852,56.6924 108.5,61C 110.661,61.7216 112.328,61.0549 113.5,59C 116.063,57.9207 118.729,57.4207 121.5,57.5C 121.297,59.3904 121.963,60.8904 123.5,62C 121.18,64.4778 119.514,67.3111 118.5,70.5 Z M 83.5,61.5 C 87.1413,64.2541 88.9746,67.9208 89,72.5C 86.6284,69.0901 84.7951,65.4234 83.5,61.5 Z"/></g>
<g><path style="opacity:0.138" fill="#f7dedd" d="M 65.5,63.5 C 70.9075,63.5918 73.2408,66.4251 72.5,72C 72.3333,73.5 72.1667,75 72,76.5C 71,77.8333 70,77.8333 69,76.5C 68.7638,74.236 68.2638,72.0693 67.5,70C 67.9574,69.586 68.2907,69.086 68.5,68.5C 67.0476,67.0603 66.0476,65.3936 65.5,63.5 Z"/></g>
<g><path style="opacity:0.111" fill="#f8dfde" d="M 52.5,66.5 C 58.0041,66.5098 58.8374,68.5098 55,72.5C 52.5202,74.0897 50.6868,73.5897 49.5,71C 50.7286,69.6136 51.7286,68.1136 52.5,66.5 Z"/></g>
<g><path style="opacity:0.153" fill="#f7dedc" d="M 120.5,80.5 C 120.5,80.8333 120.5,81.1667 120.5,81.5C 119.833,81.5 119.5,81.8333 119.5,82.5C 119.5,82.8333 119.5,83.1667 119.5,83.5C 116.757,83.9228 115.424,82.7561 115.5,80C 116.654,76.865 117.654,73.6983 118.5,70.5C 120.213,68.1496 122.547,67.1496 125.5,67.5C 125.7,70.8043 124.366,73.3043 121.5,75C 120.767,76.7659 120.433,78.5992 120.5,80.5 Z"/></g>
<g><path style="opacity:0.066" fill="#f8dedd" d="M 137.5,67.5 C 141.634,68.0064 142.467,70.0064 140,73.5C 137.961,72.0217 137.128,70.0217 137.5,67.5 Z"/></g>
<g><path style="opacity:0.914" fill="#faf9f9" d="M 126.5,87.5 C 125.253,92.2021 123.586,96.8688 121.5,101.5C 121.167,101.833 120.833,102.167 120.5,102.5C 119.52,99.9135 119.187,97.2469 119.5,94.5C 119.5,91.1667 119.5,87.8333 119.5,84.5C 119.5,84.1667 119.5,83.8333 119.5,83.5C 119.5,83.1667 119.5,82.8333 119.5,82.5C 120.167,82.5 120.5,82.1667 120.5,81.5C 120.5,81.1667 120.5,80.8333 120.5,80.5C 122.166,79.3336 123.833,79.3336 125.5,80.5C 126.374,82.7466 126.708,85.0799 126.5,87.5 Z"/></g>
<g><path style="opacity:0.362" fill="#f3dddc" d="M 76.5,90.5 C 76.281,91.675 76.6143,92.675 77.5,93.5C 78.6605,91.125 79.6605,88.7917 80.5,86.5C 80.5,87.5 80.5,88.5 80.5,89.5C 79.5325,92.4453 79.3658,95.4453 80,98.5C 81,96.5 82,94.5 83,92.5C 83.7848,94.249 84.6182,95.9157 85.5,97.5C 82.4461,105.276 79.1128,112.942 75.5,120.5C 74.8485,119.909 74.1818,119.243 73.5,118.5C 72.6786,115.553 72.1786,112.553 72,109.5C 70.9688,110.7 70.1355,112.034 69.5,113.5C 70.8335,119.827 72.1668,126.161 73.5,132.5C 73.1667,132.833 72.8333,133.167 72.5,133.5C 69.3789,127.697 66.7123,121.697 64.5,115.5C 68.5175,111.106 70.1842,105.772 69.5,99.5C 69.2975,95.2398 68.2975,91.2398 66.5,87.5C 61.7817,86.6811 61.4484,85.0145 65.5,82.5C 68.7876,83.5384 69.1209,82.8718 66.5,80.5C 69.4338,79.2014 71.9338,79.8681 74,82.5C 74.546,85.3791 75.3794,88.0458 76.5,90.5 Z"/></g>
<g><path style="opacity:0.166" fill="#dac9c9" d="M 80.5,86.5 C 79.6605,88.7917 78.6605,91.125 77.5,93.5C 76.6143,92.675 76.281,91.675 76.5,90.5C 77.5456,87.2722 78.2122,83.9389 78.5,80.5C 80.1167,76.4604 80.95,72.1271 81,67.5C 81.3333,67.8333 81.6667,68.1667 82,68.5C 81.9654,74.5167 81.4654,80.5167 80.5,86.5 Z"/></g>
<g><path style="opacity:0.999" fill="#f6ebea" d="M 105.5,84.5 C 104.835,91.1426 104.335,97.8092 104,104.5C 103.71,102.048 103.044,99.7148 102,97.5C 101.833,99.1667 101.667,100.833 101.5,102.5C 102.583,109.484 103.083,116.484 103,123.5C 98.4164,113.946 97.2497,103.946 99.5,93.5C 99.9014,90.2521 100.568,87.0854 101.5,84C 99.8339,81.5203 99.0006,78.687 99,75.5C 98.6667,79.1667 98.3333,82.8333 98,86.5C 97.6667,86.8333 97.3333,87.1667 97,87.5C 95.5236,82.1282 95.8569,76.7949 98,71.5C 99.9376,70.1398 101.604,70.4732 103,72.5C 103.528,76.6993 104.361,80.6993 105.5,84.5 Z"/></g>
<g><path style="opacity:0.996" fill="#f7ecec" d="M 87.5,99.5 C 86.7784,99.9175 86.2784,100.584 86,101.5C 85.51,100.207 85.3433,98.8734 85.5,97.5C 84.6182,95.9157 83.7848,94.249 83,92.5C 82,94.5 81,96.5 80,98.5C 79.3658,95.4453 79.5325,92.4453 80.5,89.5C 81.5911,85.5927 82.7578,81.5927 84,77.5C 85.6995,76.5939 87.5328,76.2606 89.5,76.5C 89.8685,84.2805 89.2018,91.9471 87.5,99.5 Z"/></g>
<g><path style="opacity:0.106" fill="#f8dddc" d="M 61.5,97.5 C 61.5,98.8333 61.5,100.167 61.5,101.5C 60.5272,102.791 59.5272,102.791 58.5,101.5C 57.4757,98.2251 55.809,95.3917 53.5,93C 53.6301,91.9412 54.1301,91.1079 55,90.5C 58.2237,91.9346 60.3904,94.268 61.5,97.5 Z"/></g>
<g><path style="opacity:0.375" fill="#f5dedd" d="M 127.5,91.5 C 130.127,91.2933 131.793,92.46 132.5,95C 131.167,98.3333 129.833,101.667 128.5,105C 130.249,109.093 131.749,108.593 133,103.5C 141.032,97.7994 142.199,98.966 136.5,107C 137.448,107.483 138.448,107.649 139.5,107.5C 138.766,108.708 138.433,110.041 138.5,111.5C 137.21,112.058 136.377,113.058 136,114.5C 135.34,117.678 134.507,120.678 133.5,123.5C 132.833,123.5 132.5,123.833 132.5,124.5C 131.606,130.282 129.606,135.615 126.5,140.5C 125.677,145.358 123.01,147.358 118.5,146.5C 116.833,146.5 115.167,146.5 113.5,146.5C 117.783,141.442 121.449,135.942 124.5,130C 123.963,128.208 123.63,126.375 123.5,124.5C 125.734,115.727 126.734,106.727 126.5,97.5C 126.205,95.2646 126.539,93.2646 127.5,91.5 Z"/></g>
<g><path style="opacity:0.875" fill="#f6f4f4" d="M 69.5,99.5 C 70.1842,105.772 68.5175,111.106 64.5,115.5C 63.5,114.167 62.5,112.833 61.5,111.5C 61.5,108.167 61.5,104.833 61.5,101.5C 61.5,100.167 61.5,98.8333 61.5,97.5C 62.3229,93.081 64.4895,92.4144 68,95.5C 68.21,97.0581 68.71,98.3915 69.5,99.5 Z"/></g>
<g><path style="opacity:0.069" fill="#f8dede" d="M 38.5,95.5 C 42.0714,95.4077 43.2381,97.0743 42,100.5C 41,101.833 40,101.833 39,100.5C 38.5065,98.8659 38.3398,97.1992 38.5,95.5 Z"/></g>
<g><path style="opacity:0.144" fill="#f6dedc" d="M 152.5,97.5 C 154.624,98.0312 156.124,99.3645 157,101.5C 157.49,102.793 157.657,104.127 157.5,105.5C 151.816,105.478 150.15,102.811 152.5,97.5 Z"/></g>
<g><path style="opacity:0.221" fill="#f5dedc" d="M 61.5,111.5 C 62.5,112.833 63.5,114.167 64.5,115.5C 63.7515,116.531 63.0848,117.698 62.5,119C 64.0422,121.717 65.3756,124.55 66.5,127.5C 66.3333,128.167 66.1667,128.833 66,129.5C 65.5814,128.328 64.9147,127.328 64,126.5C 63.8333,127 63.6667,127.5 63.5,128C 67.162,133.491 70.162,139.324 72.5,145.5C 68.7349,142.407 65.7349,138.74 63.5,134.5C 62.6043,133.494 61.9377,133.494 61.5,134.5C 63.8676,138.374 66.0343,142.374 68,146.5C 69.2708,147.883 70.7708,148.883 72.5,149.5C 72.5,150.833 72.5,152.167 72.5,153.5C 72.5,153.833 72.5,154.167 72.5,154.5C 67.7545,153.256 64.9211,150.256 64,145.5C 57.6929,141.082 56.1929,135.415 59.5,128.5C 58.0521,126.333 56.8854,124 56,121.5C 54.149,119.219 52.4823,119.219 51,121.5C 49.9783,120.646 49.1449,119.646 48.5,118.5C 50.3085,115.711 51.9752,112.878 53.5,110C 56.4071,109.282 59.0738,109.782 61.5,111.5 Z"/></g>
<g><path style="opacity:0.861" fill="#ddcfcf" d="M 126.5,97.5 C 126.734,106.727 125.734,115.727 123.5,124.5C 123.63,126.375 123.963,128.208 124.5,130C 121.449,135.942 117.783,141.442 113.5,146.5C 112.471,145.874 111.471,145.041 110.5,144C 111.386,142.385 112.386,140.885 113.5,139.5C 114.945,137.429 115.945,135.096 116.5,132.5C 117.283,130.924 118.45,129.591 120,128.5C 120.171,123.136 120.671,117.802 121.5,112.5C 123.151,108.037 124.318,103.37 125,98.5C 125.383,97.944 125.883,97.6107 126.5,97.5 Z"/></g>
<g><path style="opacity:0.795" fill="#f0e5e4" d="M 85.5,97.5 C 85.3433,98.8734 85.51,100.207 86,101.5C 86.2784,100.584 86.7784,99.9175 87.5,99.5C 87.7553,102.016 88.5886,104.35 90,106.5C 90.3333,104.833 90.6667,103.167 91,101.5C 91.3333,105.167 91.6667,108.833 92,112.5C 92.1981,110.618 92.6981,108.952 93.5,107.5C 94.8916,110.025 94.5582,112.192 92.5,114C 93.4491,114.617 94.2825,114.451 95,113.5C 95.9614,118.051 97.1281,122.551 98.5,127C 97.8626,128.713 96.8626,128.879 95.5,127.5C 94.3306,124.802 93.1639,122.135 92,119.5C 91.5,120.667 90.6667,121.5 89.5,122C 91.9017,125.414 93.9017,129.08 95.5,133C 94.8333,133.667 94.1667,133.667 93.5,133C 92.6667,131.5 91.5,130.333 90,129.5C 87.0754,121.786 85.0754,114.119 84,106.5C 84.0802,111.635 83.2468,116.469 81.5,121C 82.1667,122.333 82.8333,123.667 83.5,125C 82.6683,125.688 82.0016,125.521 81.5,124.5C 80.3657,121.93 79.5323,119.264 79,116.5C 78.454,119.899 78.7873,123.232 80,126.5C 82.8015,131.569 85.9682,136.402 89.5,141C 87.8807,141.236 86.8807,142.069 86.5,143.5C 86.1667,143.5 85.8333,143.5 85.5,143.5C 83.0592,141.385 80.2259,139.718 77,138.5C 75.2762,133.258 73.7762,127.924 72.5,122.5C 74.1788,122.715 75.1788,122.048 75.5,120.5C 79.1128,112.942 82.4461,105.276 85.5,97.5 Z"/></g>
<g><path style="opacity:1" fill="#fbfafa" d="M 80.5,150.5 C 86.245,152.772 92.245,154.439 98.5,155.5C 100.923,155.406 103.256,154.906 105.5,154C 108.789,151.522 112.456,149.856 116.5,149C 117.381,148.292 118.047,147.458 118.5,146.5C 123.01,147.358 125.677,145.358 126.5,140.5C 129.458,137.94 131.958,134.94 134,131.5C 135.793,126.839 137.46,122.172 139,117.5C 140.126,125.045 139.46,132.379 137,139.5C 129.63,147.548 122.963,156.215 117,165.5C 115.757,167.833 114.091,168.5 112,167.5C 110.902,168.967 109.402,169.801 107.5,170C 100.866,171.33 94.1996,171.997 87.5,172C 80.8374,166.136 78.504,158.97 80.5,150.5 Z"/></g>
<g><path style="opacity:0.999" fill="#f5eded" d="M 95.5,100.5 C 95.3776,105.232 95.8776,109.898 97,114.5C 98.4,118.867 99.9,123.2 101.5,127.5C 101.066,132.283 101.066,136.95 101.5,141.5C 99.8561,141.286 98.3561,141.62 97,142.5C 96.4818,139.977 95.1485,137.977 93,136.5C 92.502,139.482 92.3354,142.482 92.5,145.5C 94.924,145.192 97.2573,145.526 99.5,146.5C 99.2907,147.086 98.9574,147.586 98.5,148C 94.3905,149.143 90.7238,148.477 87.5,146C 89.7416,144.993 89.4082,144.159 86.5,143.5C 86.8807,142.069 87.8807,141.236 89.5,141C 85.9682,136.402 82.8015,131.569 80,126.5C 78.7873,123.232 78.454,119.899 79,116.5C 79.5323,119.264 80.3657,121.93 81.5,124.5C 82.0016,125.521 82.6683,125.688 83.5,125C 82.8333,123.667 82.1667,122.333 81.5,121C 83.2468,116.469 84.0802,111.635 84,106.5C 85.0754,114.119 87.0754,121.786 90,129.5C 91.5,130.333 92.6667,131.5 93.5,133C 94.1667,133.667 94.8333,133.667 95.5,133C 93.9017,129.08 91.9017,125.414 89.5,122C 90.6667,121.5 91.5,120.667 92,119.5C 93.1639,122.135 94.3306,124.802 95.5,127.5C 96.8626,128.879 97.8626,128.713 98.5,127C 97.1281,122.551 95.9614,118.051 95,113.5C 94.2825,114.451 93.4491,114.617 92.5,114C 94.5582,112.192 94.8916,110.025 93.5,107.5C 92.9898,104.612 93.6565,102.279 95.5,100.5 Z"/></g>
<g><path style="opacity:0.996" fill="#eee0df" d="M 119.5,94.5 C 119.187,97.2469 119.52,99.9135 120.5,102.5C 120.833,102.167 121.167,101.833 121.5,101.5C 123.586,96.8688 125.253,92.2021 126.5,87.5C 127.234,88.7079 127.567,90.0413 127.5,91.5C 126.539,93.2646 126.205,95.2646 126.5,97.5C 125.883,97.6107 125.383,97.944 125,98.5C 124.318,103.37 123.151,108.037 121.5,112.5C 120.671,117.802 120.171,123.136 120,128.5C 118.45,129.591 117.283,130.924 116.5,132.5C 117.194,127.195 117.528,121.862 117.5,116.5C 115.833,116.5 114.167,116.5 112.5,116.5C 112.5,119.833 112.5,123.167 112.5,126.5C 111.07,126.579 109.736,126.246 108.5,125.5C 108.167,126 107.833,126.5 107.5,127C 108.482,127.381 109.148,128.214 109.5,129.5C 107.838,132.776 107.504,136.109 108.5,139.5C 109.5,138.833 110.5,138.167 111.5,137.5C 112.182,138.243 112.849,138.909 113.5,139.5C 112.386,140.885 111.386,142.385 110.5,144C 111.471,145.041 112.471,145.874 113.5,146.5C 112.739,147.391 111.739,148.058 110.5,148.5C 107.324,148.365 104.158,148.032 101,147.5C 99.4688,150.272 97.3021,152.272 94.5,153.5C 92.3367,153.255 90.67,152.255 89.5,150.5C 86.5719,149.516 83.5719,149.183 80.5,149.5C 79.8333,149.5 79.1667,149.5 78.5,149.5C 78.1667,148.833 77.8333,148.167 77.5,147.5C 78.0431,147.44 78.3764,147.107 78.5,146.5C 76.244,145.579 75.244,143.912 75.5,141.5C 77.604,141.201 79.604,141.534 81.5,142.5C 82.5,144.167 83.8333,145.5 85.5,146.5C 86.5624,145.575 86.5624,144.575 85.5,143.5C 85.8333,143.5 86.1667,143.5 86.5,143.5C 89.4082,144.159 89.7416,144.993 87.5,146C 90.7238,148.477 94.3905,149.143 98.5,148C 98.9574,147.586 99.2907,147.086 99.5,146.5C 97.2573,145.526 94.924,145.192 92.5,145.5C 92.3354,142.482 92.502,139.482 93,136.5C 95.1485,137.977 96.4818,139.977 97,142.5C 98.3561,141.62 99.8561,141.286 101.5,141.5C 101.066,136.95 101.066,132.283 101.5,127.5C 99.9,123.2 98.4,118.867 97,114.5C 95.8776,109.898 95.3776,105.232 95.5,100.5C 96.2216,100.918 96.7216,101.584 97,102.5C 97.2037,99.2026 98.037,96.2026 99.5,93.5C 97.2497,103.946 98.4164,113.946 103,123.5C 103.083,116.484 102.583,109.484 101.5,102.5C 101.667,100.833 101.833,99.1667 102,97.5C 103.044,99.7148 103.71,102.048 104,104.5C 104.335,97.8092 104.835,91.1426 105.5,84.5C 105.814,81.0534 106.648,77.7201 108,74.5C 108.424,72.3855 109.591,71.5521 111.5,72C 108.331,80.1641 106.664,88.6641 106.5,97.5C 106.343,102.56 107.509,107.227 110,111.5C 110.589,109.137 112.089,108.137 114.5,108.5C 114.351,109.552 114.517,110.552 115,111.5C 117.264,105.9 118.764,100.233 119.5,94.5 Z"/></g>
<g><path style="opacity:0.999" fill="#f6efee" d="M 116.5,132.5 C 115.945,135.096 114.945,137.429 113.5,139.5C 112.849,138.909 112.182,138.243 111.5,137.5C 110.5,138.167 109.5,138.833 108.5,139.5C 107.504,136.109 107.838,132.776 109.5,129.5C 109.148,128.214 108.482,127.381 107.5,127C 107.833,126.5 108.167,126 108.5,125.5C 109.736,126.246 111.07,126.579 112.5,126.5C 112.5,123.167 112.5,119.833 112.5,116.5C 114.167,116.5 115.833,116.5 117.5,116.5C 117.528,121.862 117.194,127.195 116.5,132.5 Z"/></g>
<g><path style="opacity:0.489" fill="#a7a5a8" d="M 145.5,104.5 C 147.121,104.787 148.121,105.787 148.5,107.5C 146.285,115.102 145.285,122.769 145.5,130.5C 144.612,133.054 144.279,135.721 144.5,138.5C 143.883,138.389 143.383,138.056 143,137.5C 142.722,138.416 142.222,139.082 141.5,139.5C 142.779,127.817 144.112,116.151 145.5,104.5 Z"/></g>
<g><path style="opacity:0.155" fill="#f7dedd" d="M 45.5,127.5 C 49.3681,129.201 52.0348,132.035 53.5,136C 53.0019,137.158 52.1685,137.991 51,138.5C 48.6337,135.64 46.1337,132.807 43.5,130C 44.0556,128.989 44.7222,128.156 45.5,127.5 Z"/></g>
<g><path style="opacity:0.157" fill="#f7dfde" d="M 145.5,130.5 C 146.725,131.152 147.392,132.319 147.5,134C 147.876,136.655 146.876,138.488 144.5,139.5C 144.5,139.167 144.5,138.833 144.5,138.5C 144.279,135.721 144.612,133.054 145.5,130.5 Z"/></g>
<g><path style="opacity:0.996" fill="#dbd8db" d="M 145.5,104.5 C 144.112,116.151 142.779,127.817 141.5,139.5C 141.167,140.833 140.833,142.167 140.5,143.5C 140.167,143.5 139.833,143.5 139.5,143.5C 141.1,132.896 142.1,122.229 142.5,111.5C 141.167,111.5 139.833,111.5 138.5,111.5C 138.433,110.041 138.766,108.708 139.5,107.5C 140.687,105.025 142.687,104.025 145.5,104.5 Z"/></g>
<g><path style="opacity:0.996" fill="#e3d3d3" d="M 75.5,120.5 C 75.1788,122.048 74.1788,122.715 72.5,122.5C 73.7762,127.924 75.2762,133.258 77,138.5C 80.2259,139.718 83.0592,141.385 85.5,143.5C 86.5624,144.575 86.5624,145.575 85.5,146.5C 83.8333,145.5 82.5,144.167 81.5,142.5C 79.604,141.534 77.604,141.201 75.5,141.5C 75.244,143.912 76.244,145.579 78.5,146.5C 78.3764,147.107 78.0431,147.44 77.5,147.5C 76.8333,147.5 76.1667,147.5 75.5,147.5C 74.7095,146.599 73.7095,145.932 72.5,145.5C 70.162,139.324 67.162,133.491 63.5,128C 63.6667,127.5 63.8333,127 64,126.5C 64.9147,127.328 65.5814,128.328 66,129.5C 66.1667,128.833 66.3333,128.167 66.5,127.5C 65.3756,124.55 64.0422,121.717 62.5,119C 63.0848,117.698 63.7515,116.531 64.5,115.5C 66.7123,121.697 69.3789,127.697 72.5,133.5C 72.8333,133.167 73.1667,132.833 73.5,132.5C 72.1668,126.161 70.8335,119.827 69.5,113.5C 70.1355,112.034 70.9688,110.7 72,109.5C 72.1786,112.553 72.6786,115.553 73.5,118.5C 74.1818,119.243 74.8485,119.909 75.5,120.5 Z"/></g>
<g><path style="opacity:1" fill="#f7edec" d="M 113.5,146.5 C 115.167,146.5 116.833,146.5 118.5,146.5C 118.047,147.458 117.381,148.292 116.5,149C 112.456,149.856 108.789,151.522 105.5,154C 103.256,154.906 100.923,155.406 98.5,155.5C 92.245,154.439 86.245,152.772 80.5,150.5C 80.5,150.167 80.5,149.833 80.5,149.5C 83.5719,149.183 86.5719,149.516 89.5,150.5C 90.67,152.255 92.3367,153.255 94.5,153.5C 97.3021,152.272 99.4688,150.272 101,147.5C 104.158,148.032 107.324,148.365 110.5,148.5C 111.739,148.058 112.739,147.391 113.5,146.5 Z"/></g>
<g><path style="opacity:1" fill="#afaeb1" d="M 139.5,143.5 C 139.833,143.5 140.167,143.5 140.5,143.5C 136.582,149.001 132.916,154.668 129.5,160.5C 128.833,160.833 128.167,161.167 127.5,161.5C 129.315,156.676 131.982,152.342 135.5,148.5C 136.803,146.858 138.136,145.191 139.5,143.5 Z"/></g>
<g><path style="opacity:0.314" fill="#848486" d="M 144.5,138.5 C 144.5,138.833 144.5,139.167 144.5,139.5C 140.516,147.448 135.516,154.781 129.5,161.5C 129.5,161.167 129.5,160.833 129.5,160.5C 132.916,154.668 136.582,149.001 140.5,143.5C 140.833,142.167 141.167,140.833 141.5,139.5C 142.222,139.082 142.722,138.416 143,137.5C 143.383,138.056 143.883,138.389 144.5,138.5 Z"/></g>
<g><path style="opacity:0.702" fill="#fefcfc" d="M 155.5,150.5 C 156.117,150.611 156.617,150.944 157,151.5C 157.499,156.155 157.666,160.821 157.5,165.5C 151.435,165.013 146.101,166.68 141.5,170.5C 138.866,182.521 143.533,186.521 155.5,182.5C 156.493,187.12 156.827,191.786 156.5,196.5C 134.366,194.889 127.533,183.889 136,163.5C 141.482,157.518 147.982,153.185 155.5,150.5 Z"/></g>
<g><path style="opacity:0.759" fill="#fefdfd" d="M 50.5,154.5 C 56.7283,153.683 62.3949,155.016 67.5,158.5C 68.8333,162.167 68.8333,165.833 67.5,169.5C 65.2065,167.77 62.7065,166.437 60,165.5C 59.3076,166.025 58.8076,166.692 58.5,167.5C 61.8178,170.317 64.9845,173.317 68,176.5C 71.1971,184.576 69.0304,190.743 61.5,195C 56.2545,196.506 50.9212,196.839 45.5,196C 44.5333,191.599 44.2,187.099 44.5,182.5C 48.837,184.716 53.5037,185.716 58.5,185.5C 58.6495,184.448 58.4828,183.448 58,182.5C 47.3541,178.862 43.0207,171.529 45,160.5C 46.3597,157.977 48.193,155.977 50.5,154.5 Z"/></g>
<g><path style="opacity:1" fill="#f3f2f3" d="M 138.5,111.5 C 139.833,111.5 141.167,111.5 142.5,111.5C 142.1,122.229 141.1,132.896 139.5,143.5C 138.136,145.191 136.803,146.858 135.5,148.5C 134.5,148.5 133.5,148.5 132.5,148.5C 130.679,152.836 127.846,156.503 124,159.5C 121.453,165.575 119.953,171.909 119.5,178.5C 121.226,185.376 121.892,192.376 121.5,199.5C 115.167,199.5 108.833,199.5 102.5,199.5C 102.5,198.167 102.5,196.833 102.5,195.5C 103.552,195.649 104.552,195.483 105.5,195C 107.86,192.64 110.194,190.306 112.5,188C 110.415,185.163 110.081,182.163 111.5,179C 110.07,177.56 108.403,177.226 106.5,178C 105.304,178.654 105.304,179.154 106.5,179.5C 107.451,178.674 108.451,178.508 109.5,179C 108.929,180.205 108.262,181.372 107.5,182.5C 103.834,179.424 99.8341,176.924 95.5,175C 92.123,174.631 88.7897,174.631 85.5,175C 83.5476,172.574 81.881,170.074 80.5,167.5C 78.844,161.636 78.1773,155.636 78.5,149.5C 79.1667,149.5 79.8333,149.5 80.5,149.5C 80.5,149.833 80.5,150.167 80.5,150.5C 78.504,158.97 80.8374,166.136 87.5,172C 94.1996,171.997 100.866,171.33 107.5,170C 109.402,169.801 110.902,168.967 112,167.5C 114.091,168.5 115.757,167.833 117,165.5C 122.963,156.215 129.63,147.548 137,139.5C 139.46,132.379 140.126,125.045 139,117.5C 137.46,122.172 135.793,126.839 134,131.5C 131.958,134.94 129.458,137.94 126.5,140.5C 129.606,135.615 131.606,130.282 132.5,124.5C 133.167,124.5 133.5,124.167 133.5,123.5C 134.507,120.678 135.34,117.678 136,114.5C 136.377,113.058 137.21,112.058 138.5,111.5 Z"/></g>
<g><path style="opacity:1" fill="#bbb8bb" d="M 72.5,145.5 C 73.7095,145.932 74.7095,146.599 75.5,147.5C 75.2862,156.095 76.6195,164.428 79.5,172.5C 78.2101,171.942 77.3768,170.942 77,169.5C 75.6914,163.852 74.1914,158.518 72.5,153.5C 72.5,152.167 72.5,150.833 72.5,149.5C 72.5,148.167 72.5,146.833 72.5,145.5 Z"/></g>
<g><path style="opacity:0.902" fill="#838385" d="M 72.5,153.5 C 74.1914,158.518 75.6914,163.852 77,169.5C 77.3768,170.942 78.2101,171.942 79.5,172.5C 79.1824,175.481 80.1824,177.815 82.5,179.5C 82.5,180.833 82.5,182.167 82.5,183.5C 82.569,188.945 83.2356,194.278 84.5,199.5C 83.8333,199.5 83.1667,199.5 82.5,199.5C 82.1232,193.446 81.2899,187.446 80,181.5C 77.2622,177.078 74.9288,172.412 73,167.5C 72.501,163.179 72.3343,158.846 72.5,154.5C 72.5,154.167 72.5,153.833 72.5,153.5 Z"/></g>
<g><path style="opacity:1" fill="#e0dee0" d="M 75.5,147.5 C 76.1667,147.5 76.8333,147.5 77.5,147.5C 77.8333,148.167 78.1667,148.833 78.5,149.5C 78.1773,155.636 78.844,161.636 80.5,167.5C 84.3687,177.928 87.7021,188.595 90.5,199.5C 88.8333,199.5 87.1667,199.5 85.5,199.5C 85.6223,193.823 84.6223,188.49 82.5,183.5C 82.5,182.167 82.5,180.833 82.5,179.5C 82.8337,176.509 81.8337,174.176 79.5,172.5C 76.6195,164.428 75.2862,156.095 75.5,147.5 Z"/></g>
<g><path style="opacity:1" fill="#dcdbdd" d="M 135.5,148.5 C 131.982,152.342 129.315,156.676 127.5,161.5C 126.833,162.167 126.167,162.833 125.5,163.5C 124.883,163.611 124.383,163.944 124,164.5C 123.067,176.249 123.567,187.915 125.5,199.5C 124.167,199.5 122.833,199.5 121.5,199.5C 121.892,192.376 121.226,185.376 119.5,178.5C 119.953,171.909 121.453,165.575 124,159.5C 127.846,156.503 130.679,152.836 132.5,148.5C 133.5,148.5 134.5,148.5 135.5,148.5 Z"/></g>
<g><path style="opacity:1" fill="#b4b3b5" d="M 79.5,172.5 C 81.8337,174.176 82.8337,176.509 82.5,179.5C 80.1824,177.815 79.1824,175.481 79.5,172.5 Z"/></g>
<g><path style="opacity:1" fill="#f0f0f1" d="M 80.5,167.5 C 81.881,170.074 83.5476,172.574 85.5,175C 88.7897,174.631 92.123,174.631 95.5,175C 99.8341,176.924 103.834,179.424 107.5,182.5C 108.262,181.372 108.929,180.205 109.5,179C 108.451,178.508 107.451,178.674 106.5,179.5C 105.304,179.154 105.304,178.654 106.5,178C 108.403,177.226 110.07,177.56 111.5,179C 110.081,182.163 110.415,185.163 112.5,188C 110.194,190.306 107.86,192.64 105.5,195C 104.552,195.483 103.552,195.649 102.5,195.5C 102.5,196.833 102.5,198.167 102.5,199.5C 98.5,199.5 94.5,199.5 90.5,199.5C 87.7021,188.595 84.3687,177.928 80.5,167.5 Z"/></g>
<g><path style="opacity:0.896" fill="#abaaad" d="M 125.5,163.5 C 125.275,175.526 125.608,187.526 126.5,199.5C 126.167,199.5 125.833,199.5 125.5,199.5C 123.567,187.915 123.067,176.249 124,164.5C 124.383,163.944 124.883,163.611 125.5,163.5 Z"/></g>
<g><path style="opacity:0.736" fill="#9c9b9e" d="M 129.5,160.5 C 129.5,160.833 129.5,161.167 129.5,161.5C 127.137,166.147 126.137,171.147 126.5,176.5C 127.338,184.185 128.338,191.852 129.5,199.5C 128.5,199.5 127.5,199.5 126.5,199.5C 125.608,187.526 125.275,175.526 125.5,163.5C 126.167,162.833 126.833,162.167 127.5,161.5C 128.167,161.167 128.833,160.833 129.5,160.5 Z"/></g>
<g><path style="opacity:1" fill="#d9d8da" d="M 91.5,177.5 C 93.1439,177.286 94.6439,177.62 96,178.5C 97.8997,182.632 98.733,186.966 98.5,191.5C 94.8561,191.292 92.6895,189.292 92,185.5C 91.5026,182.854 91.3359,180.187 91.5,177.5 Z"/></g>
<g><path style="opacity:0.996" fill="#9d9c9f" d="M 82.5,183.5 C 84.6223,188.49 85.6223,193.823 85.5,199.5C 85.1667,199.5 84.8333,199.5 84.5,199.5C 83.2356,194.278 82.569,188.945 82.5,183.5 Z"/></g>
</svg>
