<svg version="1.1"
      xmlns="http://www.w3.org/2000/svg"
      xmlns:xlink="http://www.w3.org/1999/xlink"  id="snapshot-34813" width="250" height="250" viewBox="0 0 250 250"><desc>This image was made on Patterninja.com</desc><defs>
<!-- image 09310 -->
<g id="transformed-09310" data-image="09310" transform="translate(143.6628184147998, -12.467181585200187) rotate(327, 61.4371815852002, 61.437181585200186)"><g><svg version="1.1" width="122.8743631704004px" height="122.87436317040037px" viewBox="0 0 122.8743631704004 122.87436317040037"><g id="original-09310"><svg xmlns="http://www.w3.org/2000/svg" viewBox="0 0 512 512" xmlns:xlink="http://www.w3.org/1999/xlink" version="1.1" preserveAspectRatio="xMidYMid meet">
  <path d="M173.625 15.72l16.156 53.81-94.374-48.905L158.47 98.25 45.187 117.406l113.28 19.625-59.718 75.19 65.03-33.407-1.78 58.843 19.844-37.344v-64.218l.75-1.75 31.906-74.75-40.875-43.875zm146.25 0L282.97 55.343l33.342 79.03.75 1.75v69.723l15.5 29.187-1.625-54.436 65.532 34.062-63.064-77.625 113.28-19.624-113.28-19.156 63.063-77.625-92.44 47.906 15.845-52.81zm-70.595 7.84l-49.186 114.5v153.5l34.936 34.94c2.916-65.435 7.976-128.936 15.25-187.72 7.606 61.433 12.744 128.775 15.532 198l32.625-32.624V138.062l-49.156-114.5zM33.126 206.845l37.344 94.062 193.905 193.938h30.813c-66.34-68.503-128.483-139.002-180.625-205.875 74.705 58.246 155.104 130.333 231.312 205.874h31.063L126.813 244.688l-93.688-37.844zm444.844 0l-93.626 37.812L268.75 360.25l18.156 18.125c36.278-32.102 72.315-62.265 107.125-89.406-27.302 35.015-57.36 71.02-89.31 107.217L325.06 416.5l115.532-115.53 37.375-94.126zM186.06 442.938l-51.906 51.906h28.594a3170.977 3170.977 0 0 1 38.094-37.125l-14.78-14.783zm39.375 39.406c-3.995 4.173-8.003 8.34-12.03 12.5h24.53l-12.5-12.5z" fill="rgba(0, 0, 0, 1)" stroke="none"/>
</svg>
</g></svg></g></g>
<!-- /image 09310 -->

<!-- image 66185 -->
<g id="transformed-66185" data-image="66185" transform="translate(12.518039147748382, 80.88803914774839) rotate(7, 74.19196085225161, 74.19196085225163)"><g><svg version="1.1" width="148.38392170450322px" height="148.38392170450325px" viewBox="0 0 148.38392170450322 148.38392170450325"><g id="original-66185"><svg xmlns="http://www.w3.org/2000/svg" viewBox="0 0 512 512" xmlns:xlink="http://www.w3.org/1999/xlink" version="1.1" preserveAspectRatio="xMidYMid meet">
  <path d="M240.094 19.594c-56.69.364-110.882 29.054-151.594 72.344-53.428 56.81-81.948 137.907-61.03 210.093 16.33-8.797 32.757-15.987 48.936-21.374-6.327-123.16 89.247-210.922 200.03-210.344 4.255-13.365 10.268-27.308 18.127-41.874-16.323-5.43-32.736-8.36-48.97-8.782-1.833-.047-3.67-.074-5.5-.062zM271.28 88.97c-97.556 1.745-179.913 77.1-176.373 186.31 10.986-2.73 21.788-4.582 32.28-5.436 14.59-1.187 28.69-.463 41.783 2.437L278.312 162.94a114.81 114.81 0 0 1-9.344-38.75c-.716-11.256.14-22.983 2.592-35.22-.093.002-.187 0-.28 0zm60.845 60.718l-16.875 16.875L345.75 197l16.813-16.813-30.438-30.5zm-37.125 23L175.625 292.063l44.625 44.562 119.313-119.313L295 172.688zm189.875 46.093c-14.466 7.808-28.318 13.807-41.594 18.064.75 111.013-87.243 206.8-210.686 200.28-5.39 16.104-12.552 32.462-21.313 48.72 72.19 20.922 153.313-7.6 210.126-61.03 57.045-53.65 88.516-130.72 63.47-206.033zm-136 15.657L240.687 342.625c3.23 13.563 4.086 28.245 2.844 43.47-.862 10.58-2.752 21.476-5.53 32.56 109.585 3.718 185.128-79.008 186.594-176.905-12.342 2.506-24.16 3.403-35.5 2.688-14.287-.9-27.698-4.347-40.22-10zM169.5 312.313L20.094 461.72V494H48.75l151.188-151.188-30.438-30.5z" fill="rgba(0, 0, 0, 1)" stroke="none"/>
</svg>
</g></svg></g></g>
<!-- /image 66185 -->
</defs><rect x="0" y="0" width="250" height="250" fill="rgba(255, 255, 255, 1)"></rect><use xlink:href="#transformed-09310" transform="translate(-250, -250)"></use><use xlink:href="#transformed-09310" transform="translate(0, -250)"></use><use xlink:href="#transformed-09310" transform="translate(250, -250)"></use><use xlink:href="#transformed-09310" transform="translate(-250, 0)"></use><use xlink:href="#transformed-09310" transform="translate(0, 0)"></use><use xlink:href="#transformed-09310" transform="translate(250, 0)"></use><use xlink:href="#transformed-09310" transform="translate(-250, 250)"></use><use xlink:href="#transformed-09310" transform="translate(0, 250)"></use><use xlink:href="#transformed-09310" transform="translate(250, 250)"></use><use xlink:href="#transformed-66185" transform="translate(-250, -250)"></use><use xlink:href="#transformed-66185" transform="translate(0, -250)"></use><use xlink:href="#transformed-66185" transform="translate(250, -250)"></use><use xlink:href="#transformed-66185" transform="translate(-250, 0)"></use><use xlink:href="#transformed-66185" transform="translate(0, 0)"></use><use xlink:href="#transformed-66185" transform="translate(250, 0)"></use><use xlink:href="#transformed-66185" transform="translate(-250, 250)"></use><use xlink:href="#transformed-66185" transform="translate(0, 250)"></use><use xlink:href="#transformed-66185" transform="translate(250, 250)"></use></svg>